<svg width="700" height="394" viewBox="0 0 700 394" fill="none" xmlns="http://www.w3.org/2000/svg">
<g clip-path="url(#clip0_14_44)">
<path d="M700 0H0V394H700V0Z" fill="#EFEFEF"/>
<mask id="mask0_14_44" style="mask-type:alpha" maskUnits="userSpaceOnUse" x="0" y="0" width="700" height="394">
<path d="M700 0H0V394H700V0Z" fill="#EFEFEF"/>
</mask>
<g mask="url(#mask0_14_44)">
<g filter="url(#filter0_f_14_44)">
<path d="M75.4688 632.589C244.908 632.589 382.266 520.379 382.266 381.961C382.266 243.543 244.908 131.333 75.4688 131.333C-93.9705 131.333 -231.328 243.543 -231.328 381.961C-231.328 520.379 -93.9705 632.589 75.4688 632.589Z" fill="url(#paint0_radial_14_44)"/>
</g>
<g filter="url(#filter1_f_14_44)">
<path d="M608.398 327.786C774.968 327.786 910 216.189 910 78.5264C910 -59.136 774.968 -170.733 608.398 -170.733C441.828 -170.733 306.797 -59.136 306.797 78.5264C306.797 216.189 441.828 327.786 608.398 327.786Z" fill="url(#paint1_radial_14_44)"/>
</g>
<path d="M38.3797 32.227C36.1156 32.227 35.2297 30.4737 35.466 28.3067C35.4856 28.09 35.525 27.8733 35.5644 27.6763L40.821 27.5778C41.1163 27.5778 41.4116 27.4202 41.51 27.0853C41.825 25.7654 41.195 23.9727 38.7144 24.0121C36.3322 24.0515 34.1075 25.6078 33.8122 28.3658C33.5563 30.651 34.7375 32.7195 37.8678 32.7195C38.9703 32.7195 41.51 32.4634 43.1244 29.5478H42.9078C41.7463 31.833 39.4428 32.227 38.3797 32.227ZM35.6432 27.3611C36.1157 25.5684 37.3166 24.3076 38.6553 24.2879C39.9941 24.2682 40.2697 25.8442 40.3091 26.5337C40.3485 26.9671 40.1713 27.302 39.561 27.3217L35.6432 27.3611ZM41.9782 28.2476C41.742 30.8086 43.5138 32.6604 46.4276 32.6013C49.0657 32.5619 50.1091 30.8086 50.3454 30.1191H50.1091C49.9123 30.7101 49.046 32.0103 47.1954 32.0497C45.0298 32.0891 43.5138 30.6116 43.7501 28.1097C43.9273 26.0609 45.0888 24.2682 46.6441 24.2682C48.9673 24.2682 48.4357 26.8489 49.1641 26.8489L49.4791 25.135C49.3413 24.9183 48.4357 24.0121 46.7032 24.0121C44.1438 24.0121 42.1751 25.9427 41.9782 28.2476ZM51.1877 28.2673C50.8333 30.6313 52.0736 32.6013 54.8494 32.6013C57.645 32.6013 59.4366 30.6313 59.791 28.2673C60.1453 25.9033 58.905 23.9333 56.1094 23.9333C53.3336 23.9333 51.5421 25.9033 51.1877 28.2673ZM55.3613 24.3667C57.1725 24.3667 57.9403 25.5684 58.0191 28.2673C58.0978 31.0056 57.3891 32.1876 55.5778 32.1876C53.7864 32.1876 52.9989 31.0056 52.9202 28.2673C52.8414 25.5684 53.5699 24.3667 55.3613 24.3667ZM70.7826 32.2861V32.1088C70.2117 32.1088 69.3454 31.9709 69.3454 30.454V29.863L69.3651 20.9783C69.3651 19.1265 67.5932 18.6734 66.3332 18.6734C65.6835 18.6734 64.7582 18.9689 64.2857 19.2644L64.3448 20.6237C64.9354 20.6237 65.467 18.8507 66.097 18.8507C67.0617 18.8507 67.7704 19.028 67.7704 20.5055V25.5487C67.2979 24.5046 66.097 23.9333 65.0338 23.9333C62.7501 23.9333 61.1751 25.6078 61.1751 28.2673C61.1751 31.3799 63.321 32.621 65.4276 32.621C66.5104 32.621 67.3964 32.2467 67.987 31.439C68.2429 31.9709 68.676 32.2861 69.1288 32.2861H70.7826ZM67.7704 30.3555C67.7704 30.5919 67.7901 30.7889 67.8295 30.9859C67.3767 31.8724 66.6285 32.2467 65.8214 32.2467C64.1873 32.2467 62.9273 31.1238 62.9273 28.2673C62.9273 25.6669 63.8723 24.3076 65.4276 24.3076C66.412 24.3076 67.4948 25.0365 67.7704 26.3564V30.3555ZM75.2686 32.6013C77.3752 32.6013 78.0642 30.5525 78.3399 29.6857L78.1627 29.4296C78.143 29.469 77.6902 32.2861 75.2883 32.2861C74.2646 32.2861 73.4377 31.1435 73.5558 29.8236C73.7133 28.2476 75.1308 27.5778 76.2924 27.3611C77.9461 27.0656 79.4621 26.5534 79.5408 25.2729C79.6983 22.9089 76.3514 23.6575 74.8749 24.0712C74.2449 24.2485 73.4377 24.7607 73.1621 24.8789L73.0636 26.5731C73.5164 26.5731 74.4417 24.7607 74.8355 24.5243C76.5483 23.5393 78.3399 23.5787 78.2217 25.4502C78.1627 26.3761 77.6311 26.9868 76.2333 27.0853C74.678 27.2035 72.1186 27.893 72.0005 29.9418C71.9217 31.4784 73.2999 32.6013 75.2686 32.6013ZM78.8321 28.0506C78.2217 29.1538 77.6311 28.8583 77.828 29.5281L78.773 31.5375C78.9896 31.9315 79.5605 32.2861 79.9346 32.2861H81.6474L81.608 32.1088C81.0371 32.1088 80.4267 31.8133 79.8164 30.3752L78.8321 28.0506ZM80.2441 37.4475C80.5788 37.5657 82.016 37.743 82.8625 37.743C83.7878 37.743 84.2997 37.1323 84.8903 35.6942L89.1822 25.5881C89.8713 24.3667 90.7178 24.2485 91.2494 24.2485V24.0712H87.8435V24.2485C88.375 24.2485 89.1035 24.3667 88.6113 25.6078L86.6425 30.3161L84.5753 26.1003C83.8666 24.6425 82.8231 24.0712 82.4097 24.0712H80.3622V24.2485C80.8938 24.2485 81.5828 24.3076 82.2522 25.6078L85.7566 32.4437L84.2997 35.9503C83.8666 36.955 83.4531 37.5657 82.6656 37.5657C82.0947 37.5657 80.4803 34.9456 79.8897 34.9456L80.2441 37.4475Z" fill="#A0FF01" fill-opacity="0.45"/>
<path d="M35.6453 30.5853C33.3813 30.5853 32.4953 28.832 32.7316 26.665C32.7513 26.4483 32.7907 26.2316 32.83 26.0346L38.0866 25.9361C38.3819 25.9361 38.6772 25.7785 38.7756 25.4436C39.0906 24.1237 38.4606 22.331 35.98 22.3704C33.5978 22.4098 31.3731 23.9661 31.0778 26.7241C30.8219 29.0093 32.0032 31.0778 35.1335 31.0778C36.236 31.0778 38.7757 30.8217 40.39 27.9061H40.1735C39.0119 30.1913 36.7085 30.5853 35.6453 30.5853ZM32.9088 25.7194C33.3813 23.9267 34.5822 22.6659 35.921 22.6462C37.2597 22.6265 37.5353 24.2025 37.5747 24.892C37.6141 25.3254 37.4369 25.6603 36.8266 25.68L32.9088 25.7194ZM39.2438 26.6059C39.0076 29.1669 40.7795 31.0187 43.6932 30.9596C46.3313 30.9202 47.3748 29.1669 47.611 28.4774H47.3748C47.1779 29.0684 46.3116 30.3686 44.461 30.408C42.2954 30.4474 40.7795 28.9699 41.0157 26.468C41.1929 24.4192 42.3545 22.6265 43.9098 22.6265C46.2329 22.6265 45.7013 25.2072 46.4298 25.2072L46.7448 23.4933C46.607 23.2766 45.7013 22.3704 43.9688 22.3704C41.4095 22.3704 39.4407 24.301 39.2438 26.6059ZM48.4533 26.6256C48.0989 28.9896 49.3393 30.9596 52.1152 30.9596C54.9107 30.9596 56.7022 28.9896 57.0566 26.6256C57.411 24.2616 56.1707 22.2916 53.3752 22.2916C50.5993 22.2916 48.8077 24.2616 48.4533 26.6256ZM52.6271 22.725C54.4383 22.725 55.206 23.9267 55.2847 26.6256C55.3635 29.3639 54.6549 30.5459 52.8436 30.5459C51.0521 30.5459 50.2646 29.3639 50.1858 26.6256C50.1071 23.9267 50.8355 22.725 52.6271 22.725ZM68.0482 30.6444V30.4671C67.4773 30.4671 66.611 30.3292 66.611 28.8123V28.2213L66.6307 19.3366C66.6307 17.4848 64.8588 17.0317 63.5989 17.0317C62.9492 17.0317 62.0239 17.3272 61.5514 17.6227L61.6104 18.982C62.201 18.982 62.7326 17.209 63.3626 17.209C64.3273 17.209 65.036 17.3863 65.036 18.8638V23.907C64.5635 22.8629 63.3626 22.2916 62.2995 22.2916C60.0157 22.2916 58.4407 23.9661 58.4407 26.6256C58.4407 29.7382 60.5867 30.9793 62.6932 30.9793C63.776 30.9793 64.662 30.605 65.2526 29.7973C65.5085 30.3292 65.9417 30.6444 66.3945 30.6444H68.0482ZM65.036 28.7138C65.036 28.9502 65.0557 29.1472 65.0951 29.3442C64.6423 30.2307 63.8942 30.605 63.087 30.605C61.4529 30.605 60.1929 29.4821 60.1929 26.6256C60.1929 24.0252 61.1379 22.6659 62.6932 22.6659C63.6776 22.6659 64.7604 23.3948 65.036 24.7147V28.7138ZM72.5342 30.9596C74.6408 30.9596 75.3299 28.9108 75.6055 28.044L75.4283 27.7879C75.4086 27.8273 74.9558 30.6444 72.5539 30.6444C71.5302 30.6444 70.7033 29.5018 70.8214 28.1819C70.9789 26.6059 72.3964 25.9361 73.558 25.7194C75.2117 25.4239 76.7277 24.9117 76.8064 23.6312C76.9639 21.2672 73.6171 22.0158 72.1405 22.4295C71.5105 22.6068 70.7033 23.119 70.4277 23.2372L70.3292 24.9314C70.7821 24.9314 71.7074 23.119 72.1011 22.8826C73.8139 21.8976 75.6055 21.937 75.4874 23.8085C75.4283 24.7344 74.8967 25.3451 73.4989 25.4436C71.9436 25.5618 69.3842 26.2513 69.2661 28.3001C69.1874 29.8367 70.5655 30.9596 72.5342 30.9596ZM76.0977 26.4089C75.4874 27.5121 74.8967 27.2166 75.0936 27.8864L76.0386 29.8958C76.2552 30.2898 76.8261 30.6444 77.2002 30.6444H78.913L78.8736 30.4671C78.3027 30.4671 77.6924 30.1716 77.0821 28.7335L76.0977 26.4089ZM77.5097 35.8058C77.8444 35.924 79.2816 36.1013 80.1281 36.1013C81.0535 36.1013 81.5653 35.4906 82.156 34.0525L86.4478 23.9464C87.1369 22.725 87.9835 22.6068 88.515 22.6068V22.4295H85.1091V22.6068C85.6406 22.6068 86.3691 22.725 85.8769 23.9661L83.9081 28.6744L81.841 24.4586C81.1322 23.0008 80.0888 22.4295 79.6753 22.4295H77.6278V22.6068C78.1594 22.6068 78.8485 22.6659 79.5178 23.9661L83.0222 30.802L81.5653 34.3086C81.1322 35.3133 80.7188 35.924 79.9313 35.924C79.3603 35.924 77.746 33.3039 77.1553 33.3039L77.5097 35.8058Z" fill="black" fill-opacity="0.9"/>
<path d="M36.5094 124.907C38.1369 125.695 38.8194 126.378 39.7119 128.059C40.6569 126.535 41.3394 125.852 42.8619 124.854C41.2344 123.961 40.5519 123.226 39.7119 121.65C38.9769 123.278 38.5044 124.119 36.5094 124.907ZM34.5669 153.222H46.4844V152.749C44.9094 152.749 42.6519 152.382 42.6519 148.284V136.674C42.6519 132.944 41.0769 131.316 39.9219 131.316H34.5669V131.789C36.0894 131.789 38.3994 132.156 38.3994 136.254V148.284C38.3994 152.382 36.1419 152.749 34.5669 152.749V153.222ZM48.9224 131.841C50.4449 131.841 52.7549 132.156 52.7549 136.254V148.337C52.7549 152.382 50.4974 152.749 48.9224 152.749V153.222H60.8399V152.749C59.2649 152.749 57.0074 152.382 57.0074 148.337V137.305C57.8474 133.837 60.5249 132.156 63.1499 132.156C66.6149 132.156 67.6649 134.363 67.6649 139.143V148.337C67.6649 152.382 65.4074 152.749 63.8849 152.749V153.222H75.7499V152.749C74.2274 152.749 71.9174 152.382 71.9174 148.337V139.143C71.9174 138.46 71.9174 137.777 71.8124 137.2C72.9149 134.52 74.9624 132.156 77.7449 132.156C81.1049 132.156 82.6274 134.363 82.6274 139.143V148.337C82.6274 152.382 80.3699 152.749 78.7949 152.749V153.222H90.7124V152.749C89.1374 152.749 86.8799 152.382 86.8799 148.337V139.143C86.8799 133.732 83.9399 130.948 78.8999 130.948C75.6449 130.948 73.0724 133.049 71.5499 135.781C70.6049 132.577 68.2424 130.948 64.2524 130.948C61.3124 130.948 58.3199 132.577 56.9024 135.308C56.5874 132.524 55.2749 131.316 54.2774 131.316H48.9224V131.841ZM86.3811 118.498L86.5911 122.123C88.1136 122.123 89.5311 117.395 91.2111 117.395C93.7836 117.395 95.6736 117.867 95.6736 121.807V148.337C95.6736 152.382 93.4161 152.749 91.8411 152.749V153.222H97.2486C97.9836 153.222 98.8761 152.592 99.4011 151.121C100.976 153.17 103.339 154.115 106.174 154.115C111.791 154.115 117.514 150.806 117.514 142.505C117.514 135.413 113.314 130.948 107.224 130.948C104.389 130.948 101.239 132.419 99.9261 135.203V123.068C99.9261 118.13 95.2011 116.922 91.8936 116.922C90.1086 116.922 87.6936 117.71 86.3811 118.498ZM99.9261 137.305C100.714 133.837 103.601 131.946 106.174 131.946C110.269 131.946 112.841 135.571 112.841 142.505C112.841 150.123 109.429 153.117 105.124 153.117C102.971 153.117 101.029 152.119 99.7686 149.808C99.8736 149.282 99.9261 148.599 99.9261 147.864V137.305ZM147.692 152.749C146.169 152.749 143.86 152.749 143.86 148.599V131.316H135.775V131.789C137.35 131.789 139.607 132.156 139.607 136.096V146.971C138.662 150.333 135.565 152.014 132.572 152.014C128.582 152.014 127.375 149.86 127.375 145.185V131.316H119.29V131.789C120.865 131.789 123.122 132.156 123.122 136.096V145.185C123.122 150.491 125.852 153.222 131.627 153.222C134.83 153.222 138.137 151.594 139.712 148.862C140.027 151.909 141.34 153.222 142.337 153.222H147.692V152.749ZM162.001 153.065C155.963 153.065 153.601 148.389 154.231 142.611C154.283 142.033 154.388 141.455 154.493 140.929L168.511 140.667C169.298 140.667 170.086 140.247 170.348 139.353C171.188 135.834 169.508 131.053 162.893 131.158C156.541 131.263 150.608 135.413 149.821 142.768C149.138 148.862 152.288 154.378 160.636 154.378C163.576 154.378 170.348 153.695 174.653 145.92H174.076C170.978 152.014 164.836 153.065 162.001 153.065ZM154.703 140.089C155.963 135.308 159.166 131.946 162.736 131.894C166.306 131.841 167.041 136.044 167.146 137.883C167.251 139.038 166.778 139.931 165.151 139.984L154.703 140.089ZM194.9 154.063C200.517 154.063 202.355 148.599 203.09 146.288L202.617 145.605C202.565 145.71 201.357 153.222 194.952 153.222C192.222 153.222 190.017 150.175 190.332 146.656C190.752 142.453 194.532 140.667 197.63 140.089C202.04 139.301 206.082 137.935 206.292 134.52C206.712 128.216 197.787 130.213 193.85 131.316C192.17 131.789 190.017 133.155 189.282 133.47L189.02 137.988C190.227 137.988 192.695 133.155 193.745 132.524C198.312 129.897 203.09 130.003 202.775 134.993C202.617 137.462 201.2 139.091 197.472 139.353C193.325 139.669 186.5 141.507 186.185 146.971C185.975 151.068 189.65 154.063 194.9 154.063ZM204.402 141.928C202.775 144.869 201.2 144.081 201.725 145.868L204.245 151.226C204.822 152.277 206.345 153.222 207.342 153.222H211.91L211.805 152.749C210.282 152.749 208.655 151.961 207.027 148.127L204.402 141.928ZM225.853 131.841C227.376 131.841 229.686 132.156 229.686 136.254V148.337C229.686 152.382 227.428 152.749 225.853 152.749V153.222H237.771V152.749C236.196 152.749 233.938 152.382 233.938 148.337V137.305C234.883 133.89 237.036 132.156 240.028 132.156C244.018 132.156 244.596 134.415 245.226 139.143L246.433 148.337C246.958 152.329 244.176 152.749 242.601 152.749V153.222H254.518V152.749C252.943 152.749 251.211 152.382 250.686 148.337L249.478 139.143C248.796 133.785 246.748 130.948 240.973 130.948C237.771 130.948 235.408 132.577 233.833 135.308C233.518 132.524 232.206 131.316 231.208 131.316H225.853V131.841ZM268.539 153.065C262.502 153.065 260.139 148.389 260.769 142.611C260.822 142.033 260.927 141.455 261.032 140.929L275.049 140.667C275.837 140.667 276.624 140.247 276.887 139.353C277.727 135.834 276.047 131.053 269.432 131.158C263.079 131.263 257.147 135.413 256.359 142.768C255.677 148.862 258.827 154.378 267.174 154.378C270.114 154.378 276.887 153.695 281.192 145.92H280.614C277.517 152.014 271.374 153.065 268.539 153.065ZM261.242 140.089C262.502 135.308 265.704 131.946 269.274 131.894C272.844 131.841 273.579 136.044 273.684 137.883C273.789 139.038 273.317 139.931 271.689 139.984L261.242 140.089ZM274.722 131.841C276.192 131.841 277.82 132.051 279.763 135.413L290.21 153.537H291.05L295.88 140.509L302.233 153.537H303.073L311.473 135.361C313.048 131.946 315.568 131.789 316.985 131.789V131.316H307.903V131.789C309.32 131.789 311.473 132.209 310.003 135.413L304.175 147.654L298.505 135.046C297.823 133.522 299.713 131.789 301.498 131.789V131.316H288.373V131.789C289.79 131.789 291.68 131.894 293.413 135.413L295.093 138.881L291.89 147.391L285.958 136.674C283.91 132.944 281.338 131.316 280.183 131.316H274.722V131.841ZM339.704 123.068C339.704 118.13 334.979 116.922 331.671 116.922C329.886 116.922 327.471 117.71 326.159 118.498L326.369 122.123C327.891 122.123 329.309 117.395 330.989 117.395C333.561 117.395 335.451 117.867 335.451 121.807V148.284C335.451 152.382 333.194 152.749 331.619 152.749V153.222H343.536V152.749C341.961 152.749 339.704 152.382 339.704 148.337V123.068ZM347.869 124.907C349.497 125.695 350.179 126.378 351.072 128.059C352.017 126.535 352.699 125.852 354.222 124.854C352.594 123.961 351.912 123.226 351.072 121.65C350.337 123.278 349.864 124.119 347.869 124.907ZM345.927 153.222H357.844V152.749C356.269 152.749 354.012 152.382 354.012 148.284V136.674C354.012 132.944 352.437 131.316 351.282 131.316H345.927V131.789C347.449 131.789 349.759 132.156 349.759 136.254V148.284C349.759 152.382 347.502 152.749 345.927 152.749V153.222ZM359.337 130.791V131.316H364.325V148.337C364.325 152.382 362.015 152.749 360.492 152.749V153.222H372.357V152.749C370.835 152.749 368.577 152.382 368.577 148.337V131.316H375.402L376.452 130.791H368.577L368.682 125.38C370.572 118.288 374.037 118.288 377.502 118.288C379.182 118.288 379.707 122.963 381.282 122.963L382.122 119.391C381.02 118.603 378.762 117.762 377.03 117.762C370.047 117.762 364.64 121.807 364.167 125.275L364.22 130.791H359.337ZM387.382 153.065C381.344 153.065 378.982 148.389 379.612 142.611C379.664 142.033 379.769 141.455 379.874 140.929L393.892 140.667C394.679 140.667 395.467 140.247 395.729 139.353C396.569 135.834 394.889 131.053 388.274 131.158C381.922 131.263 375.989 135.413 375.202 142.768C374.519 148.862 377.669 154.378 386.017 154.378C388.957 154.378 395.729 153.695 400.034 145.92H399.457C396.359 152.014 390.217 153.065 387.382 153.065ZM380.084 140.089C381.344 135.308 384.547 131.946 388.117 131.894C391.687 131.841 392.422 136.044 392.527 137.883C392.632 139.038 392.159 139.931 390.532 139.984L380.084 140.089ZM36.5094 168.685C38.1369 169.473 38.8194 170.156 39.7119 171.837C40.6569 170.313 41.3394 169.63 42.8619 168.632C41.2344 167.739 40.5519 167.004 39.7119 165.428C38.9769 167.056 38.5044 167.897 36.5094 168.685ZM34.5669 197H46.4844V196.527C44.9094 196.527 42.6519 196.16 42.6519 192.062V180.452C42.6519 176.722 41.0769 175.094 39.9219 175.094H34.5669V175.566C36.0894 175.566 38.3994 175.934 38.3994 180.032V192.062C38.3994 196.16 36.1419 196.527 34.5669 196.527V197ZM48.9224 175.619C50.4449 175.619 52.7549 175.934 52.7549 180.032V192.114C52.7549 196.16 50.4974 196.527 48.9224 196.527V197H60.8399V196.527C59.2649 196.527 57.0074 196.16 57.0074 192.114V181.082C57.9524 177.668 60.1049 175.934 63.0974 175.934C67.0874 175.934 67.6649 178.193 68.2949 182.921L69.5024 192.114C70.0274 196.107 67.2449 196.527 65.6699 196.527V197H77.5874V196.527C76.0124 196.527 74.2799 196.16 73.7549 192.114L72.5474 182.921C71.8649 177.563 69.8174 174.726 64.0424 174.726C60.8399 174.726 58.4774 176.354 56.9024 179.086C56.5874 176.302 55.2749 175.094 54.2774 175.094H48.9224V175.619ZM76.7501 169.052C78.2726 169.052 80.5826 169.368 80.5826 173.465V174.568H77.4851V175.094H80.5826V188.805C85.6226 189.75 77.1701 197.893 90.0851 197.893C91.8176 197.893 94.2326 197.053 95.4926 196.265L95.3351 192.64C93.7601 192.64 92.3426 197.368 90.6626 197.368C87.0926 197.368 84.8351 195.161 84.8351 188.805V175.094H92.3426V174.568H84.8351V173.885C84.8351 170.156 83.2601 168.527 82.1051 168.527H76.7501V169.052ZM99.5121 186.283C98.5671 192.587 101.875 197.841 109.277 197.841C116.732 197.841 121.51 192.587 122.455 186.283C123.4 179.979 120.092 174.726 112.637 174.726C105.235 174.726 100.457 179.979 99.5121 186.283ZM110.642 175.882C115.472 175.882 117.52 179.086 117.73 186.283C117.94 193.585 116.05 196.737 111.22 196.737C106.442 196.737 104.342 193.585 104.132 186.283C103.922 179.086 105.865 175.882 110.642 175.882ZM133.366 210.764C134.258 211.079 138.091 211.552 140.349 211.552C142.816 211.552 144.181 209.923 145.756 206.088L157.201 179.139C159.039 175.882 161.296 175.566 162.714 175.566V175.094H153.631V175.566C155.049 175.566 156.991 175.882 155.679 179.191L150.429 191.747L144.916 180.505C143.026 176.617 140.244 175.094 139.141 175.094H133.681V175.566C135.098 175.566 136.936 175.724 138.721 179.191L148.066 197.42L144.181 206.771C143.026 209.45 141.924 211.079 139.824 211.079C138.301 211.079 133.996 204.092 132.421 204.092L133.366 210.764ZM163.086 186.283C162.141 192.587 165.449 197.841 172.851 197.841C180.306 197.841 185.084 192.587 186.029 186.283C186.974 179.979 183.666 174.726 176.211 174.726C168.809 174.726 164.031 179.979 163.086 186.283ZM174.216 175.882C179.046 175.882 181.094 179.086 181.304 186.283C181.514 193.585 179.624 196.737 174.794 196.737C170.016 196.737 167.916 193.585 167.706 186.283C167.496 179.086 169.439 175.882 174.216 175.882ZM215.06 196.527C213.538 196.527 211.228 196.527 211.228 192.377V175.094H203.143V175.566C204.718 175.566 206.975 175.934 206.975 179.874V190.749C206.03 194.111 202.933 195.792 199.94 195.792C195.95 195.792 194.743 193.638 194.743 188.962V175.094H186.658V175.566C188.233 175.566 190.49 175.934 190.49 179.874V188.962C190.49 194.268 193.22 197 198.995 197C202.198 197 205.505 195.372 207.08 192.64C207.395 195.687 208.708 197 209.705 197H215.06V196.527ZM225.537 181.082C226.219 177.615 228.109 176.039 230.682 176.039C232.204 176.039 234.094 179.769 235.879 179.349L235.407 174.936C234.147 174.831 233.149 174.726 231.784 174.726C228.949 174.726 226.639 176.302 225.432 178.824C225.064 176.249 223.804 175.094 222.859 175.094H217.452V175.566C219.027 175.566 221.284 175.934 221.284 179.927V192.167C221.284 196.16 219.027 196.527 217.452 196.527V197H229.369V196.527C227.794 196.527 225.537 196.16 225.537 192.114V181.082ZM260.735 200.782C258.635 200.257 256.85 200.047 255.38 200.047C251.18 200.047 249.604 201.991 249.604 204.775C249.604 209.661 256.377 212.34 262.887 212.34C268.872 212.34 274.647 210.081 274.647 205.248C274.647 195.161 256.535 197.368 256.535 193.848C256.535 192.745 257.532 192.325 258.792 192.114C259.737 192.325 260.735 192.43 261.837 192.43C268.715 192.43 272.39 188.332 272.39 183.499C272.39 180.767 271.235 178.246 268.977 176.617C270.08 175.356 271.392 174.778 272.337 175.094L274.647 177.773V173.57C274.017 173.413 273.387 173.308 272.862 173.308C270.395 173.308 268.925 174.936 268.19 176.092C266.51 175.146 264.41 174.568 261.837 174.568C254.96 174.568 251.285 178.613 251.285 183.499C251.285 187.229 253.489 190.538 257.637 191.852C255.275 192.272 252.912 193.428 252.912 195.477C252.912 201.255 272.6 198.996 272.6 206.771C272.6 209.976 269.397 211.394 265.512 211.394C259.842 211.394 252.755 208.242 252.755 203.146C252.755 201.15 254.015 200.572 255.695 200.572C257.27 200.572 259.265 201.15 260.735 201.413V200.782ZM261.837 175.356C265.565 175.356 267.087 177.825 267.087 183.499C267.087 189.173 265.565 191.589 261.837 191.589C258.057 191.589 256.535 189.173 256.535 183.499C256.535 177.825 258.057 175.356 261.837 175.356ZM285.134 197.841C290.752 197.841 292.589 192.377 293.324 190.066L292.852 189.383C292.799 189.488 291.592 197 285.187 197C282.457 197 280.252 193.953 280.567 190.433C280.987 186.231 284.767 184.445 287.864 183.867C292.274 183.079 296.317 181.713 296.527 178.298C296.947 171.994 288.022 173.99 284.084 175.094C282.404 175.566 280.252 176.932 279.517 177.248L279.254 181.765C280.462 181.765 282.929 176.932 283.979 176.302C288.547 173.675 293.324 173.78 293.009 178.771C292.852 181.24 291.434 182.869 287.707 183.131C283.559 183.446 276.734 185.285 276.419 190.749C276.209 194.846 279.884 197.841 285.134 197.841ZM294.637 185.705C293.009 188.647 291.434 187.859 291.959 189.645L294.479 195.004C295.057 196.054 296.579 197 297.577 197H302.144L302.039 196.527C300.517 196.527 298.889 195.739 297.262 191.904L294.637 185.705ZM311.003 181.082C311.685 177.615 313.575 176.039 316.148 176.039C317.67 176.039 319.56 179.769 321.345 179.349L320.873 174.936C319.613 174.831 318.615 174.726 317.25 174.726C314.415 174.726 312.105 176.302 310.898 178.824C310.53 176.249 309.27 175.094 308.325 175.094H302.918V175.566C304.493 175.566 306.75 175.934 306.75 179.927V192.167C306.75 196.16 304.493 196.527 302.918 196.527V197H314.835V196.527C313.26 196.527 311.003 196.16 311.003 192.114V181.082ZM318.068 162.276L318.278 165.9C319.8 165.9 321.218 161.172 322.898 161.172C325.47 161.172 327.36 161.645 327.36 165.585V192.114C327.36 196.16 325.103 196.527 323.528 196.527V197H328.935C329.67 197 330.563 196.37 331.088 194.899C332.663 196.948 335.025 197.893 337.86 197.893C343.478 197.893 349.2 194.584 349.2 186.283C349.2 179.191 345 174.726 338.91 174.726C336.075 174.726 332.925 176.197 331.613 178.981V166.846C331.613 161.908 326.888 160.7 323.58 160.7C321.795 160.7 319.38 161.488 318.068 162.276ZM331.613 181.082C332.4 177.615 335.288 175.724 337.86 175.724C341.955 175.724 344.528 179.349 344.528 186.283C344.528 193.901 341.115 196.895 336.81 196.895C334.658 196.895 332.715 195.897 331.455 193.585C331.56 193.06 331.613 192.377 331.613 191.642V181.082ZM361.372 197.841C366.989 197.841 368.827 192.377 369.562 190.066L369.089 189.383C369.037 189.488 367.829 197 361.424 197C358.694 197 356.489 193.953 356.804 190.433C357.224 186.231 361.004 184.445 364.102 183.867C368.512 183.079 372.554 181.713 372.764 178.298C373.184 171.994 364.259 173.99 360.322 175.094C358.642 175.566 356.489 176.932 355.754 177.248L355.492 181.765C356.699 181.765 359.167 176.932 360.217 176.302C364.784 173.675 369.562 173.78 369.247 178.771C369.089 181.24 367.672 182.869 363.944 183.131C359.797 183.446 352.972 185.285 352.657 190.749C352.447 194.846 356.122 197.841 361.372 197.841ZM370.874 185.705C369.247 188.647 367.672 187.859 368.197 189.645L370.717 195.004C371.294 196.054 372.817 197 373.814 197H378.382L378.277 196.527C376.754 196.527 375.127 195.739 373.499 191.904L370.874 185.705ZM388.652 200.782C386.552 200.257 384.767 200.047 383.297 200.047C379.097 200.047 377.522 201.991 377.522 204.775C377.522 209.661 384.295 212.34 390.805 212.34C396.79 212.34 402.564 210.081 402.564 205.248C402.564 195.161 384.452 197.368 384.452 193.848C384.452 192.745 385.449 192.325 386.71 192.114C387.654 192.325 388.652 192.43 389.754 192.43C396.632 192.43 400.307 188.332 400.307 183.499C400.307 180.767 399.152 178.246 396.895 176.617C397.997 175.356 399.31 174.778 400.254 175.094L402.564 177.773V173.57C401.935 173.413 401.305 173.308 400.78 173.308C398.312 173.308 396.842 174.936 396.107 176.092C394.427 175.146 392.327 174.568 389.754 174.568C382.877 174.568 379.202 178.613 379.202 183.499C379.202 187.229 381.407 190.538 385.555 191.852C383.192 192.272 380.83 193.428 380.83 195.477C380.83 201.255 400.517 198.996 400.517 206.771C400.517 209.976 397.315 211.394 393.43 211.394C387.76 211.394 380.672 208.242 380.672 203.146C380.672 201.15 381.932 200.572 383.612 200.572C385.187 200.572 387.182 201.15 388.652 201.413V200.782ZM389.754 175.356C393.482 175.356 395.005 177.825 395.005 183.499C395.005 189.173 393.482 191.589 389.754 191.589C385.974 191.589 384.452 189.173 384.452 183.499C384.452 177.825 385.974 175.356 389.754 175.356ZM415.939 196.842C409.901 196.842 407.539 192.167 408.169 186.388C408.221 185.81 408.326 185.233 408.431 184.707L422.449 184.445C423.236 184.445 424.024 184.024 424.286 183.131C425.126 179.612 423.446 174.831 416.831 174.936C410.479 175.041 404.546 179.191 403.759 186.546C403.076 192.64 406.226 198.156 414.574 198.156C417.514 198.156 424.286 197.473 428.591 189.698H428.014C424.916 195.792 418.774 196.842 415.939 196.842ZM408.641 183.867C409.901 179.086 413.104 175.724 416.674 175.672C420.244 175.619 420.979 179.822 421.084 181.66C421.189 182.816 420.716 183.709 419.089 183.762L408.641 183.867Z" fill="#303030"/>
<path d="M33.4097 229.477C33.9609 229.477 34.5713 229.555 35.2997 230.816L39.2175 237.613H39.5325L41.3438 232.727L43.7259 237.613H44.0409L47.1909 230.796C47.7816 229.516 48.7266 229.457 49.2581 229.457V229.28H45.8522V229.457C46.3838 229.457 47.1909 229.614 46.6397 230.816L44.4544 235.406L42.3281 230.678C42.0722 230.107 42.781 229.457 43.4503 229.457V229.28H38.5285V229.457C39.06 229.457 39.7688 229.496 40.4184 230.816L41.0484 232.116L39.8475 235.308L37.6228 231.289C36.855 229.89 35.8903 229.28 35.4572 229.28H33.4097V229.477ZM53.3547 237.435C51.0906 237.435 50.2047 235.682 50.4409 233.515C50.4606 233.298 50.5 233.082 50.5394 232.885L55.796 232.786C56.0913 232.786 56.3867 232.629 56.4851 232.294C56.8001 230.974 56.1701 229.181 53.6894 229.22C51.3072 229.26 49.0825 230.816 48.7872 233.574C48.5312 235.859 49.7125 237.928 52.8428 237.928C53.9453 237.928 56.4851 237.672 58.0995 234.756H57.8829C56.7213 237.041 54.4178 237.435 53.3547 237.435ZM50.6181 232.569C51.0906 230.777 52.2915 229.516 53.6303 229.496C54.9692 229.477 55.2448 231.053 55.2842 231.742C55.3235 232.175 55.1463 232.51 54.5359 232.53L50.6181 232.569ZM61.9905 233.456C61.7542 236.017 63.5261 237.869 66.4399 237.81C69.078 237.77 70.1214 236.017 70.3577 235.327H70.1214C69.9245 235.918 69.0583 237.219 67.2077 237.258C65.042 237.297 63.5261 235.82 63.7624 233.318C63.9395 231.269 65.1011 229.477 66.6564 229.477C68.9795 229.477 68.448 232.057 69.1764 232.057L69.4914 230.343C69.3536 230.127 68.448 229.22 66.7155 229.22C64.1561 229.22 62.1874 231.151 61.9905 233.456ZM73.7199 231.525C73.9758 230.225 74.6845 229.634 75.6492 229.634C76.2202 229.634 76.9289 231.033 77.5983 230.875L77.4211 229.22C76.9486 229.181 76.5745 229.142 76.0627 229.142C74.9995 229.142 74.1333 229.733 73.6805 230.678C73.5427 229.713 73.0702 229.28 72.7158 229.28H70.688V229.457C71.2786 229.457 72.1252 229.595 72.1252 231.092V235.682C72.1252 237.179 71.2786 237.317 70.688 237.317V237.494H75.157V237.317C74.5664 237.317 73.7199 237.179 73.7199 235.662V231.525ZM82.886 237.435C80.622 237.435 79.736 235.682 79.9723 233.515C79.992 233.298 80.0313 233.082 80.0707 232.885L85.3273 232.786C85.6226 232.786 85.9179 232.629 86.0163 232.294C86.3313 230.974 85.7013 229.181 83.2207 229.22C80.8385 229.26 78.6138 230.816 78.3185 233.574C78.0626 235.859 79.2438 237.928 82.3742 237.928C83.4767 237.928 86.0163 237.672 87.6307 234.756H87.4142C86.2526 237.041 83.9492 237.435 82.886 237.435ZM80.1495 232.569C80.622 230.777 81.8229 229.516 83.1617 229.496C84.5004 229.477 84.776 231.053 84.8154 231.742C84.8548 232.175 84.6776 232.51 84.0673 232.53L80.1495 232.569ZM90.032 237.81C92.1386 237.81 92.8277 235.761 93.1033 234.894L92.9261 234.638C92.9064 234.677 92.4536 237.494 90.0517 237.494C89.028 237.494 88.2011 236.352 88.3192 235.032C88.4767 233.456 89.8942 232.786 91.0558 232.569C92.7095 232.274 94.2255 231.762 94.3042 230.481C94.4617 228.117 91.1149 228.866 89.6383 229.28C89.0083 229.457 88.2011 229.969 87.9255 230.087L87.827 231.781C88.2799 231.781 89.2052 229.969 89.5989 229.733C91.3117 228.748 93.1033 228.787 92.9852 230.659C92.9261 231.584 92.3945 232.195 90.9967 232.294C89.4414 232.412 86.882 233.101 86.7639 235.15C86.6852 236.687 88.0633 237.81 90.032 237.81ZM93.5955 233.259C92.9852 234.362 92.3945 234.067 92.5914 234.736L93.5364 236.746C93.753 237.14 94.3239 237.494 94.698 237.494H96.4108L96.3714 237.317C95.8005 237.317 95.1902 237.022 94.5799 235.584L93.5955 233.259ZM95.2908 227.014C95.8617 227.014 96.728 227.132 96.728 228.669V229.083H95.5664V229.28H96.728V234.421C98.618 234.776 95.4483 237.829 100.291 237.829C100.941 237.829 101.847 237.514 102.319 237.219L102.26 235.859C101.67 235.859 101.138 237.632 100.508 237.632C99.1692 237.632 98.3227 236.805 98.3227 234.421V229.28H101.138V229.083H98.3227V228.826C98.3227 227.428 97.732 226.817 97.2989 226.817H95.2908V227.014ZM106.957 237.435C104.693 237.435 103.807 235.682 104.043 233.515C104.063 233.298 104.102 233.082 104.141 232.885L109.398 232.786C109.693 232.786 109.989 232.629 110.087 232.294C110.402 230.974 109.772 229.181 107.291 229.22C104.909 229.26 102.685 230.816 102.389 233.574C102.133 235.859 103.315 237.928 106.445 237.928C107.547 237.928 110.087 237.672 111.701 234.756H111.485C110.323 237.041 108.02 237.435 106.957 237.435ZM104.22 232.569C104.693 230.777 105.894 229.516 107.232 229.496C108.571 229.477 108.847 231.053 108.886 231.742C108.925 232.175 108.748 232.51 108.138 232.53L104.22 232.569ZM114.943 229.28V229.477C115.534 229.477 116.38 229.595 116.38 231.131V241.06C116.38 242.597 115.534 242.715 114.943 242.715V242.912H119.412V242.715C118.822 242.715 117.975 242.597 117.975 241.08V236.923C118.546 237.534 119.353 237.829 120.318 237.829C122.425 237.829 124.551 236.588 124.551 233.476C124.551 230.816 122.995 229.142 120.712 229.142C119.629 229.142 118.448 229.693 117.975 230.737V229.28H114.943ZM117.975 236.332V231.525C118.25 230.225 119.334 229.516 120.318 229.516C121.854 229.516 122.818 230.875 122.818 233.476C122.818 236.332 121.539 237.455 119.924 237.455C119.137 237.455 118.448 237.12 117.975 236.332ZM126.189 226.876C126.8 227.172 127.055 227.428 127.39 228.058C127.745 227.487 128 227.231 128.571 226.856C127.961 226.522 127.705 226.246 127.39 225.655C127.115 226.265 126.937 226.581 126.189 226.876ZM125.461 237.494H129.93V237.317C129.339 237.317 128.493 237.179 128.493 235.643V231.289C128.493 229.89 127.902 229.28 127.469 229.28H125.461V229.457C126.032 229.457 126.898 229.595 126.898 231.131V235.643C126.898 237.179 126.051 237.317 125.461 237.317V237.494ZM135.085 237.435C132.821 237.435 131.935 235.682 132.171 233.515C132.191 233.298 132.23 233.082 132.269 232.885L137.526 232.786C137.821 232.786 138.117 232.629 138.215 232.294C138.53 230.974 137.9 229.181 135.419 229.22C133.037 229.26 130.813 230.816 130.517 233.574C130.261 235.859 131.443 237.928 134.573 237.928C135.675 237.928 138.215 237.672 139.829 234.756H139.613C138.451 237.041 136.148 237.435 135.085 237.435ZM132.348 232.569C132.821 230.777 134.022 229.516 135.36 229.496C136.699 229.477 136.975 231.053 137.014 231.742C137.053 232.175 136.876 232.51 136.266 232.53L132.348 232.569ZM138.683 233.456C138.447 236.017 140.219 237.869 143.133 237.81C145.771 237.77 146.814 236.017 147.05 235.327H146.814C146.617 235.918 145.751 237.219 143.9 237.258C141.735 237.297 140.219 235.82 140.455 233.318C140.632 231.269 141.794 229.477 143.349 229.477C145.672 229.477 145.141 232.057 145.869 232.057L146.184 230.343C146.046 230.127 145.141 229.22 143.408 229.22C140.849 229.22 138.88 231.151 138.683 233.456ZM151.85 237.435C149.586 237.435 148.7 235.682 148.936 233.515C148.956 233.298 148.995 233.082 149.034 232.885L154.291 232.786C154.586 232.786 154.882 232.629 154.98 232.294C155.295 230.974 154.665 229.181 152.184 229.22C149.802 229.26 147.578 230.816 147.282 233.574C147.026 235.859 148.208 237.928 151.338 237.928C152.44 237.928 154.98 237.672 156.594 234.756H156.378C155.216 237.041 152.913 237.435 151.85 237.435ZM149.113 232.569C149.586 230.777 150.787 229.516 152.125 229.496C153.464 229.477 153.74 231.053 153.779 231.742C153.818 232.175 153.641 232.51 153.031 232.53L149.113 232.569ZM156.783 237.337C157.295 237.455 158.279 237.79 159.52 237.79C161.902 237.79 163.496 236.549 163.496 235.111C163.496 232.451 158.161 232.707 158.161 230.501C158.161 229.496 159.283 229.319 159.776 229.319C161.39 229.319 161.626 231.131 162.355 231.131L162.414 229.437C161.981 229.319 160.563 229.142 159.716 229.142C158.24 229.142 156.645 229.674 156.645 231.171C156.645 233.929 162 233.811 162 235.978C162 236.864 161.075 237.494 159.795 237.494C157.59 237.494 157.511 235.643 156.842 235.643L156.783 237.337ZM170.041 233.476C169.687 235.84 170.927 237.81 173.703 237.81C176.498 237.81 178.29 235.84 178.644 233.476C178.999 231.112 177.758 229.142 174.963 229.142C172.187 229.142 170.395 231.112 170.041 233.476ZM174.215 229.575C176.026 229.575 176.794 230.777 176.873 233.476C176.951 236.214 176.243 237.396 174.431 237.396C172.64 237.396 171.852 236.214 171.773 233.476C171.695 230.777 172.423 229.575 174.215 229.575ZM178.939 229.083V229.28H180.809V235.662C180.809 237.179 179.943 237.317 179.372 237.317V237.494H183.822V237.317C183.251 237.317 182.404 237.179 182.404 235.662V229.28H184.964L185.357 229.083H182.404L182.444 227.053C183.152 224.394 184.452 224.394 185.751 224.394C186.381 224.394 186.578 226.147 187.169 226.147L187.484 224.808C187.07 224.512 186.224 224.197 185.574 224.197C182.955 224.197 180.928 225.714 180.75 227.014L180.77 229.083H178.939ZM194.083 237.81C196.19 237.81 196.879 235.761 197.154 234.894L196.977 234.638C196.958 234.677 196.505 237.494 194.103 237.494C193.079 237.494 192.252 236.352 192.37 235.032C192.528 233.456 193.945 232.786 195.107 232.569C196.761 232.274 198.277 231.762 198.355 230.481C198.513 228.117 195.166 228.866 193.689 229.28C193.059 229.457 192.252 229.969 191.977 230.087L191.878 231.781C192.331 231.781 193.256 229.969 193.65 229.733C195.363 228.748 197.154 228.787 197.036 230.659C196.977 231.584 196.446 232.195 195.048 232.294C193.493 232.412 190.933 233.101 190.815 235.15C190.736 236.687 192.114 237.81 194.083 237.81ZM197.647 233.259C197.036 234.362 196.446 234.067 196.643 234.736L197.588 236.746C197.804 237.14 198.375 237.494 198.749 237.494H200.462L200.423 237.317C199.852 237.317 199.241 237.022 198.631 235.584L197.647 233.259ZM203.784 231.525C204.04 230.225 204.749 229.634 205.714 229.634C206.285 229.634 206.993 231.033 207.663 230.875L207.485 229.22C207.013 229.181 206.639 229.142 206.127 229.142C205.064 229.142 204.198 229.733 203.745 230.678C203.607 229.713 203.135 229.28 202.78 229.28H200.752V229.457C201.343 229.457 202.19 229.595 202.19 231.092V235.682C202.19 237.179 201.343 237.317 200.752 237.317V237.494H205.221V237.317C204.631 237.317 203.784 237.179 203.784 235.662V231.525ZM207.379 227.014C207.95 227.014 208.816 227.132 208.816 228.669V229.083H207.654V229.28H208.816V234.421C210.706 234.776 207.536 237.829 212.379 237.829C213.029 237.829 213.935 237.514 214.407 237.219L214.348 235.859C213.758 235.859 213.226 237.632 212.596 237.632C211.257 237.632 210.411 236.805 210.411 234.421V229.28H213.226V229.083H210.411V228.826C210.411 227.428 209.82 226.817 209.387 226.817H207.379V227.014ZM230.579 237.317C230.008 237.317 229.142 237.317 229.142 235.761V229.28H226.11V229.457C226.7 229.457 227.547 229.595 227.547 231.072V235.15C227.193 236.411 226.031 237.041 224.909 237.041C223.413 237.041 222.96 236.234 222.96 234.48V229.28H219.928V229.457C220.519 229.457 221.365 229.595 221.365 231.072V234.48C221.365 236.47 222.389 237.494 224.555 237.494C225.755 237.494 226.996 236.884 227.586 235.859C227.705 237.002 228.197 237.494 228.571 237.494H230.579V237.317ZM231.515 237.337C232.027 237.455 233.011 237.79 234.252 237.79C236.634 237.79 238.229 236.549 238.229 235.111C238.229 232.451 232.893 232.707 232.893 230.501C232.893 229.496 234.015 229.319 234.508 229.319C236.122 229.319 236.358 231.131 237.087 231.131L237.146 229.437C236.713 229.319 235.295 229.142 234.449 229.142C232.972 229.142 231.377 229.674 231.377 231.171C231.377 233.929 236.732 233.811 236.732 235.978C236.732 236.864 235.807 237.494 234.527 237.494C232.322 237.494 232.244 235.643 231.574 235.643L231.515 237.337ZM239.2 226.876C239.81 227.172 240.066 227.428 240.401 228.058C240.755 227.487 241.011 227.231 241.582 226.856C240.972 226.522 240.716 226.246 240.401 225.655C240.125 226.265 239.948 226.581 239.2 226.876ZM238.471 237.494H242.94V237.317C242.35 237.317 241.503 237.179 241.503 235.643V231.289C241.503 229.89 240.913 229.28 240.48 229.28H238.471V229.457C239.042 229.457 239.909 229.595 239.909 231.131V235.643C239.909 237.179 239.062 237.317 238.471 237.317V237.494ZM243.855 229.477C244.426 229.477 245.292 229.595 245.292 231.131V235.662C245.292 237.179 244.445 237.317 243.855 237.317V237.494H248.324V237.317C247.733 237.317 246.887 237.179 246.887 235.662V231.525C247.241 230.245 248.048 229.595 249.17 229.595C250.667 229.595 250.883 230.442 251.12 232.215L251.572 235.662C251.769 237.16 250.726 237.317 250.135 237.317V237.494H254.604V237.317C254.014 237.317 253.364 237.179 253.167 235.662L252.714 232.215C252.458 230.205 251.69 229.142 249.525 229.142C248.324 229.142 247.438 229.752 246.847 230.777C246.729 229.733 246.237 229.28 245.863 229.28H243.855V229.477ZM258.858 238.913C258.07 238.716 257.401 238.637 256.85 238.637C255.275 238.637 254.684 239.366 254.684 240.41C254.684 242.242 257.224 243.247 259.665 243.247C261.909 243.247 264.075 242.4 264.075 240.587C264.075 236.805 257.283 237.632 257.283 236.312C257.283 235.899 257.657 235.741 258.129 235.662C258.484 235.741 258.858 235.781 259.271 235.781C261.85 235.781 263.228 234.244 263.228 232.432C263.228 231.407 262.795 230.462 261.949 229.851C262.362 229.378 262.854 229.161 263.209 229.28L264.075 230.284V228.708C263.839 228.649 263.603 228.61 263.406 228.61C262.48 228.61 261.929 229.22 261.653 229.654C261.023 229.299 260.236 229.083 259.271 229.083C256.692 229.083 255.314 230.599 255.314 232.432C255.314 233.83 256.141 235.071 257.696 235.564C256.81 235.721 255.924 236.155 255.924 236.923C255.924 239.09 263.307 238.243 263.307 241.159C263.307 242.36 262.106 242.892 260.649 242.892C258.523 242.892 255.865 241.71 255.865 239.799C255.865 239.051 256.338 238.834 256.968 238.834C257.558 238.834 258.307 239.051 258.858 239.149V238.913ZM259.271 229.378C260.669 229.378 261.24 230.304 261.24 232.432C261.24 234.559 260.669 235.465 259.271 235.465C257.854 235.465 257.283 234.559 257.283 232.432C257.283 230.304 257.854 229.378 259.271 229.378ZM279.798 237.317C279.227 237.317 278.36 237.317 278.36 235.761V229.28H275.329V229.457C275.919 229.457 276.766 229.595 276.766 231.072V235.15C276.411 236.411 275.25 237.041 274.128 237.041C272.631 237.041 272.179 236.234 272.179 234.48V229.28H269.147V229.457C269.737 229.457 270.584 229.595 270.584 231.072V234.48C270.584 236.47 271.608 237.494 273.773 237.494C274.974 237.494 276.215 236.884 276.805 235.859C276.923 237.002 277.415 237.494 277.79 237.494H279.798V237.317ZM279.592 227.014C280.163 227.014 281.029 227.132 281.029 228.669V229.083H279.868V229.28H281.029V234.421C282.919 234.776 279.75 237.829 284.593 237.829C285.242 237.829 286.148 237.514 286.62 237.219L286.561 235.859C285.971 235.859 285.439 237.632 284.809 237.632C283.47 237.632 282.624 236.805 282.624 234.421V229.28H285.439V229.083H282.624V228.826C282.624 227.428 282.033 226.817 281.6 226.817H279.592V227.014ZM288.246 226.876C288.856 227.172 289.112 227.428 289.447 228.058C289.801 227.487 290.057 227.231 290.628 226.856C290.018 226.522 289.762 226.246 289.447 225.655C289.171 226.265 288.994 226.581 288.246 226.876ZM287.517 237.494H291.986V237.317C291.396 237.317 290.549 237.179 290.549 235.643V231.289C290.549 229.89 289.959 229.28 289.525 229.28H287.517V229.457C288.088 229.457 288.955 229.595 288.955 231.131V235.643C288.955 237.179 288.108 237.317 287.517 237.317V237.494ZM295.874 226.187C295.874 224.335 294.102 223.882 292.861 223.882C292.192 223.882 291.286 224.177 290.794 224.473L290.873 225.832C291.444 225.832 291.975 224.059 292.605 224.059C293.57 224.059 294.279 224.236 294.279 225.714V235.643C294.279 237.179 293.432 237.317 292.842 237.317V237.494H297.311V237.317C296.72 237.317 295.874 237.179 295.874 235.662V226.187ZM298.936 226.876C299.546 227.172 299.802 227.428 300.136 228.058C300.491 227.487 300.747 227.231 301.318 226.856C300.707 226.522 300.451 226.246 300.136 225.655C299.861 226.265 299.684 226.581 298.936 226.876ZM298.207 237.494H302.676V237.317C302.086 237.317 301.239 237.179 301.239 235.643V231.289C301.239 229.89 300.648 229.28 300.215 229.28H298.207V229.457C298.778 229.457 299.644 229.595 299.644 231.131V235.643C299.644 237.179 298.798 237.317 298.207 237.317V237.494ZM303.551 237.494H307.922C308.749 237.494 309.595 237.317 309.93 237.199L311.446 233.751C310.855 233.751 308.493 237.337 307.922 237.317H306.288C305.736 237.297 305.185 237.179 306.17 235.938L311.032 229.89L311.013 229.28H306.681C305.658 229.28 304.634 229.496 304.201 229.634L303.453 232.806C304.083 232.806 305.815 229.477 306.406 229.477L308.197 229.496C308.749 229.496 309.28 229.575 308.296 230.816L303.551 236.864V237.494ZM317.002 237.435C314.738 237.435 313.852 235.682 314.088 233.515C314.108 233.298 314.147 233.082 314.186 232.885L319.443 232.786C319.738 232.786 320.033 232.629 320.132 232.294C320.447 230.974 319.817 229.181 317.336 229.22C314.954 229.26 312.729 230.816 312.434 233.574C312.178 235.859 313.359 237.928 316.49 237.928C317.592 237.928 320.132 237.672 321.746 234.756H321.53C320.368 237.041 318.065 237.435 317.002 237.435ZM314.265 232.569C314.738 230.777 315.938 229.516 317.277 229.496C318.616 229.477 318.892 231.053 318.931 231.742C318.97 232.175 318.793 232.51 318.183 232.53L314.265 232.569ZM330.602 237.494V237.317C330.031 237.317 329.165 237.179 329.165 235.662V235.071L329.184 226.187C329.184 224.335 327.412 223.882 326.152 223.882C325.503 223.882 324.577 224.177 324.105 224.473L324.164 225.832C324.755 225.832 325.286 224.059 325.916 224.059C326.881 224.059 327.59 224.236 327.59 225.714V230.757C327.117 229.713 325.916 229.142 324.853 229.142C322.569 229.142 320.994 230.816 320.994 233.476C320.994 236.588 323.14 237.829 325.247 237.829C326.33 237.829 327.216 237.455 327.806 236.647C328.062 237.179 328.495 237.494 328.948 237.494H330.602ZM327.59 235.564C327.59 235.8 327.609 235.997 327.649 236.194C327.196 237.081 326.448 237.455 325.641 237.455C324.007 237.455 322.746 236.332 322.746 233.476C322.746 230.875 323.691 229.516 325.247 229.516C326.231 229.516 327.314 230.245 327.59 231.565V235.564ZM336.778 237.337C337.29 237.455 338.274 237.79 339.514 237.79C341.896 237.79 343.491 236.549 343.491 235.111C343.491 232.451 338.156 232.707 338.156 230.501C338.156 229.496 339.278 229.319 339.77 229.319C341.385 229.319 341.621 231.131 342.349 231.131L342.408 229.437C341.975 229.319 340.558 229.142 339.711 229.142C338.235 229.142 336.64 229.674 336.64 231.171C336.64 233.929 341.995 233.811 341.995 235.978C341.995 236.864 341.07 237.494 339.79 237.494C337.585 237.494 337.506 235.643 336.837 235.643L336.778 237.337ZM343.077 227.014C343.648 227.014 344.514 227.132 344.514 228.669V229.083H343.352V229.28H344.514V234.421C346.404 234.776 343.234 237.829 348.077 237.829C348.727 237.829 349.633 237.514 350.105 237.219L350.046 235.859C349.455 235.859 348.924 237.632 348.294 237.632C346.955 237.632 346.108 236.805 346.108 234.421V229.28H348.924V229.083H346.108V228.826C346.108 227.428 345.518 226.817 345.085 226.817H343.077V227.014ZM360.47 237.317C359.9 237.317 359.033 237.317 359.033 235.761V229.28H356.001V229.457C356.592 229.457 357.439 229.595 357.439 231.072V235.15C357.084 236.411 355.923 237.041 354.801 237.041C353.304 237.041 352.851 236.234 352.851 234.48V229.28H349.82V229.457C350.41 229.457 351.257 229.595 351.257 231.072V234.48C351.257 236.47 352.28 237.494 354.446 237.494C355.647 237.494 356.887 236.884 357.478 235.859C357.596 237.002 358.088 237.494 358.462 237.494H360.47V237.317ZM360.914 229.083V229.28H362.784V235.662C362.784 237.179 361.918 237.317 361.347 237.317V237.494H366.702V237.317C366.131 237.317 364.379 237.179 364.379 235.662V229.28H367.135V229.083H364.379L364.418 227.053C365.127 224.394 366.427 224.394 367.726 224.394C368.356 224.394 368.553 226.147 369.143 226.147L369.458 224.808C369.045 224.512 368.198 224.197 367.549 224.197C364.93 224.197 362.902 225.714 362.725 227.014L362.745 229.083H360.914ZM367.135 229.083V229.28H369.045V235.662C369.045 237.179 367.273 237.317 366.702 237.317V237.494H372.057V237.317C371.486 237.317 370.64 237.179 370.64 235.662V229.28H373.199L373.593 229.083H370.64L370.679 227.053C371.388 224.394 372.687 224.394 373.987 224.394C374.617 224.394 374.813 226.147 375.404 226.147L375.719 224.808C375.306 224.512 374.459 224.197 373.809 224.197C371.191 224.197 369.163 225.714 368.986 227.014L369.006 229.083H367.135Z" fill="#303030" fill-opacity="0.9"/>
<path d="M610.912 292.217H473.594C464.533 292.217 457.188 299.567 457.188 308.633V329.818C457.188 338.885 464.533 346.235 473.594 346.235H610.912C619.973 346.235 627.318 338.885 627.318 329.818V308.633C627.318 299.567 619.973 292.217 610.912 292.217Z" fill="#303030"/>
<path d="M488.108 320.002C487.813 323.203 490.027 325.518 493.67 325.444C496.967 325.395 498.271 323.203 498.567 322.341H498.272C498.025 323.08 496.943 324.705 494.629 324.755C491.922 324.804 490.027 322.957 490.323 319.83C490.544 317.269 491.996 315.028 493.94 315.028C496.844 315.028 496.18 318.254 497.09 318.254L497.484 316.111C497.312 315.84 496.18 314.707 494.014 314.707C490.815 314.707 488.354 317.121 488.108 320.002ZM499.62 320.027C499.177 322.982 500.727 325.444 504.197 325.444C507.691 325.444 509.931 322.982 510.374 320.027C510.817 317.072 509.266 314.609 505.772 314.609C502.302 314.609 500.063 317.072 499.62 320.027ZM504.837 315.151C507.101 315.151 508.061 316.653 508.159 320.027C508.257 323.449 507.372 324.927 505.107 324.927C502.868 324.927 501.884 323.449 501.785 320.027C501.687 316.653 502.597 315.151 504.837 315.151ZM511.185 315.028C511.899 315.028 512.982 315.175 512.982 317.096V322.76C512.982 324.656 511.924 324.828 511.185 324.828V325.05H516.772V324.828C516.033 324.828 514.975 324.656 514.975 322.76V317.589C515.418 315.988 516.427 315.175 517.83 315.175C519.7 315.175 519.971 316.234 520.266 318.451L520.832 322.76C521.078 324.631 519.774 324.828 519.036 324.828V325.05H524.622V324.828C523.884 324.828 523.072 324.656 522.826 322.76L522.26 318.451C521.94 315.939 520.98 314.609 518.273 314.609C516.772 314.609 515.664 315.372 514.926 316.653C514.778 315.348 514.163 314.781 513.696 314.781H511.185V315.028ZM524.23 311.95C524.944 311.95 526.027 312.097 526.027 314.018V314.535H524.575V314.781H526.027V321.208C528.389 321.652 524.427 325.469 530.481 325.469C531.293 325.469 532.425 325.075 533.016 324.705L532.942 323.006C532.203 323.006 531.539 325.222 530.752 325.222C529.078 325.222 528.02 324.188 528.02 321.208V314.781H531.539V314.535H528.02V314.215C528.02 312.467 527.282 311.703 526.74 311.703H524.23V311.95ZM538.493 325.444C541.126 325.444 541.987 322.883 542.332 321.8L542.11 321.479C542.085 321.529 541.519 325.05 538.517 325.05C537.237 325.05 536.204 323.622 536.352 321.972C536.548 320.002 538.32 319.165 539.772 318.894C541.839 318.524 543.734 317.884 543.833 316.283C544.03 313.328 539.846 314.264 538 314.781C537.213 315.003 536.204 315.643 535.859 315.791L535.736 317.909C536.302 317.909 537.459 315.643 537.951 315.348C540.092 314.117 542.332 314.166 542.184 316.505C542.11 317.663 541.446 318.426 539.698 318.549C537.754 318.697 534.555 319.559 534.407 322.12C534.309 324.04 536.032 325.444 538.493 325.444ZM542.947 319.756C542.184 321.135 541.446 320.765 541.692 321.603L542.873 324.114C543.144 324.607 543.857 325.05 544.325 325.05H546.466L546.417 324.828C545.703 324.828 544.94 324.459 544.177 322.661L542.947 319.756ZM546.555 320.002C546.26 323.203 548.477 325.518 552.12 325.444C555.417 325.395 556.719 323.203 557.014 322.341H556.719C556.473 323.08 555.39 324.705 553.077 324.755C550.37 324.804 548.477 322.957 548.773 319.83C548.991 317.269 550.446 315.028 552.388 315.028C555.291 315.028 554.63 318.254 555.538 318.254L555.931 316.111C555.762 315.84 554.63 314.707 552.464 314.707C549.265 314.707 546.801 317.121 546.555 320.002ZM556.052 311.95C556.763 311.95 557.845 312.097 557.845 314.018V314.535H556.396V314.781H557.845V321.208C560.208 321.652 556.248 325.469 562.302 325.469C563.112 325.469 564.244 325.075 564.834 324.705L564.763 323.006C564.025 323.006 563.358 325.222 562.57 325.222C560.897 325.222 559.841 324.188 559.841 321.208V314.781H563.358V314.535H559.841V314.215C559.841 312.467 559.103 311.703 558.562 311.703H556.052V311.95ZM585.047 324.828C584.336 324.828 583.253 324.828 583.253 322.883V314.781H579.463V315.003C580.202 315.003 581.257 315.175 581.257 317.022V322.12C580.814 323.696 579.365 324.484 577.959 324.484C576.089 324.484 575.526 323.474 575.526 321.282V314.781H571.736V315.003C572.474 315.003 573.53 315.175 573.53 317.022V321.282C573.53 323.77 574.809 325.05 577.516 325.05C579.02 325.05 580.568 324.287 581.306 323.006C581.454 324.434 582.072 325.05 582.537 325.05H585.047V324.828ZM586.217 324.853C586.857 325.001 588.087 325.419 589.641 325.419C592.616 325.419 594.612 323.868 594.612 322.07C594.612 318.746 587.94 319.066 587.94 316.308C587.94 315.052 589.345 314.831 589.958 314.831C591.976 314.831 592.271 317.096 593.184 317.096L593.256 314.978C592.714 314.831 590.942 314.609 589.887 314.609C588.038 314.609 586.048 315.274 586.048 317.145C586.048 320.593 592.741 320.445 592.741 323.154C592.741 324.262 591.582 325.05 589.985 325.05C587.229 325.05 587.13 322.735 586.294 322.735L586.217 324.853Z" fill="#EFEFEF"/>
<path d="M182.109 38.4265H700" stroke="#303030" stroke-opacity="0.6" stroke-width="1.5"/>
<path d="M203 23.211C204.521 23.211 205.019 21.7313 205.218 21.1053L205.09 20.9203C205.076 20.9488 204.749 22.9834 203.014 22.9834C202.275 22.9834 201.678 22.1582 201.763 21.2049C201.877 20.0667 202.901 19.5829 203.739 19.4264C204.934 19.213 206.029 18.8431 206.086 17.9183C206.199 16.2109 203.782 16.7516 202.716 17.0504C202.261 17.1784 201.678 17.5484 201.479 17.6337L201.408 18.8573C201.735 18.8573 202.403 17.5484 202.687 17.3776C203.924 16.6662 205.218 16.6947 205.133 18.0463C205.09 18.715 204.706 19.1561 203.697 19.2272C202.573 19.3126 200.725 19.8106 200.64 21.2903C200.583 22.4 201.578 23.211 203 23.211ZM205.574 19.9244C205.133 20.7212 204.706 20.5077 204.848 20.9915L205.531 22.4427C205.687 22.7273 206.1 22.9834 206.37 22.9834H207.607L207.578 22.8553C207.166 22.8553 206.725 22.6419 206.285 21.6033L205.574 19.9244ZM206.005 13.5788L206.061 14.5605C206.474 14.5605 206.858 13.28 207.313 13.28C208.009 13.28 208.521 13.4081 208.521 14.4752V21.6602C208.521 22.7557 207.91 22.8553 207.483 22.8553V22.9834H208.948C209.147 22.9834 209.389 22.8126 209.531 22.4143C209.957 22.9691 210.597 23.2252 211.365 23.2252C212.886 23.2252 214.436 22.3289 214.436 20.0809C214.436 18.1602 213.299 16.9508 211.649 16.9508C210.882 16.9508 210.028 17.3492 209.673 18.1032V14.8166C209.673 13.4792 208.393 13.152 207.498 13.152C207.014 13.152 206.36 13.3654 206.005 13.5788ZM209.673 18.6724C209.886 17.7333 210.668 17.2211 211.365 17.2211C212.474 17.2211 213.171 18.2028 213.171 20.0809C213.171 22.1439 212.247 22.9549 211.081 22.9549C210.498 22.9549 209.972 22.6846 209.63 22.0586C209.659 21.9163 209.673 21.7313 209.673 21.5321V18.6724ZM215.656 20.0809C215.4 21.7882 216.296 23.211 218.301 23.211C220.32 23.211 221.614 21.7882 221.87 20.0809C222.126 18.3736 221.23 16.9508 219.211 16.9508C217.206 16.9508 215.912 18.3736 215.656 20.0809ZM218.671 17.2638C219.979 17.2638 220.533 18.1317 220.59 20.0809C220.647 22.0586 220.135 22.9122 218.827 22.9122C217.533 22.9122 216.965 22.0586 216.908 20.0809C216.851 18.1317 217.377 17.2638 218.671 17.2638ZM229.733 22.8553C229.321 22.8553 228.695 22.8553 228.695 21.7313V17.0504H226.505V17.1784C226.932 17.1784 227.543 17.278 227.543 18.3451V21.2903C227.287 22.2008 226.448 22.6561 225.638 22.6561C224.557 22.6561 224.23 22.0728 224.23 20.8065V17.0504H222.041V17.1784C222.467 17.1784 223.079 17.278 223.079 18.3451V20.8065C223.079 22.2435 223.818 22.9834 225.382 22.9834C226.249 22.9834 227.145 22.5423 227.572 21.8025C227.657 22.6277 228.012 22.9834 228.283 22.9834H229.733V22.8553ZM229.584 15.4142C229.997 15.4142 230.622 15.4996 230.622 16.6093V16.9081H229.783V17.0504H230.622V20.7638C231.987 21.0199 229.698 23.2252 233.196 23.2252C233.665 23.2252 234.319 22.9976 234.66 22.7842L234.618 21.8025C234.191 21.8025 233.807 23.083 233.352 23.083C232.385 23.083 231.774 22.4854 231.774 20.7638V17.0504H233.807V16.9081H231.774V16.7231C231.774 15.713 231.347 15.2719 231.035 15.2719H229.584V15.4142ZM246.34 22.8553C245.928 22.8553 245.302 22.8553 245.302 21.7313V17.0504H243.112V17.1784C243.539 17.1784 244.15 17.278 244.15 18.3451V21.2903C243.894 22.2008 243.055 22.6561 242.245 22.6561C241.164 22.6561 240.837 22.0728 240.837 20.8065V17.0504H238.648V17.1784C239.074 17.1784 239.686 17.278 239.686 18.3451V20.8065C239.686 22.2435 240.425 22.9834 241.989 22.9834C242.856 22.9834 243.752 22.5423 244.179 21.8025C244.264 22.6277 244.619 22.9834 244.89 22.9834H246.34V22.8553ZM247.016 22.8695C247.386 22.9549 248.096 23.1968 248.992 23.1968C250.713 23.1968 251.864 22.3004 251.864 21.2618C251.864 19.3411 248.011 19.526 248.011 17.9325C248.011 17.2069 248.822 17.0788 249.177 17.0788C250.343 17.0788 250.514 18.3878 251.04 18.3878L251.082 17.1642C250.77 17.0788 249.746 16.9508 249.134 16.9508C248.068 16.9508 246.916 17.3349 246.916 18.4163C246.916 20.4081 250.784 20.3228 250.784 21.8878C250.784 22.5281 250.116 22.9834 249.191 22.9834C247.599 22.9834 247.542 21.646 247.058 21.646L247.016 22.8695Z" fill="#303030" fill-opacity="0.8"/>
<path d="M274.94 20.0666C274.769 21.9162 276.049 23.2536 278.153 23.211C280.059 23.1825 280.812 21.9162 280.983 21.4183H280.812C280.67 21.8451 280.044 22.7841 278.708 22.8126C277.144 22.841 276.049 21.7739 276.219 19.967C276.347 18.4873 277.186 17.1926 278.31 17.1926C279.987 17.1926 279.604 19.0564 280.13 19.0564L280.357 17.8186C280.258 17.6621 279.604 17.0076 278.352 17.0076C276.504 17.0076 275.082 18.402 274.94 20.0666ZM281.591 20.0808C281.335 21.7882 282.231 23.211 284.236 23.211C286.255 23.211 287.549 21.7882 287.804 20.0808C288.06 18.3735 287.165 16.9507 285.146 16.9507C283.141 16.9507 281.847 18.3735 281.591 20.0808ZM284.605 17.2637C285.913 17.2637 286.468 18.1316 286.525 20.0808C286.582 22.0585 286.07 22.9122 284.762 22.9122C283.468 22.9122 282.899 22.0585 282.842 20.0808C282.785 18.1316 283.311 17.2637 284.605 17.2637ZM288.274 17.1926C288.686 17.1926 289.312 17.278 289.312 18.3877V21.6601C289.312 22.7557 288.7 22.8553 288.274 22.8553V22.9833H291.501V22.8553C291.075 22.8553 290.463 22.7557 290.463 21.6601V18.6723C290.719 17.7475 291.302 17.278 292.113 17.278C293.193 17.278 293.35 17.8898 293.52 19.1703L293.847 21.6601C293.99 22.7414 293.236 22.8553 292.809 22.8553V22.9833H296.037V22.8553C295.611 22.8553 295.141 22.7557 294.999 21.6601L294.672 19.1703C294.487 17.719 293.933 16.9507 292.369 16.9507C291.501 16.9507 290.862 17.3918 290.435 18.1316C290.35 17.3776 289.994 17.0503 289.724 17.0503H288.274V17.1926ZM295.81 15.4141C296.223 15.4141 296.848 15.4995 296.848 16.6093V16.908H296.009V17.0503H296.848V20.7638C298.213 21.0199 295.924 23.2252 299.422 23.2252C299.891 23.2252 300.545 22.9975 300.886 22.7841L300.844 21.8024C300.417 21.8024 300.033 23.0829 299.578 23.0829C298.611 23.0829 298 22.4853 298 20.7638V17.0503H300.033V16.908H298V16.7231C298 15.7129 297.573 15.2719 297.261 15.2719H295.81V15.4141ZM304.051 23.211C305.572 23.211 306.07 21.7313 306.269 21.1052L306.141 20.9203C306.127 20.9487 305.8 22.9833 304.065 22.9833C303.326 22.9833 302.729 22.1581 302.814 21.2048C302.928 20.0666 303.952 19.5829 304.79 19.4264C305.985 19.2129 307.08 18.843 307.137 17.9182C307.25 16.2109 304.833 16.7515 303.767 17.0503C303.312 17.1784 302.729 17.5483 302.53 17.6337L302.459 18.8572C302.786 18.8572 303.454 17.5483 303.738 17.3776C304.975 16.6662 306.269 16.6946 306.184 18.0463C306.141 18.715 305.757 19.156 304.748 19.2272C303.624 19.3125 301.776 19.8105 301.691 21.2902C301.634 22.4 302.629 23.211 304.051 23.211ZM306.625 19.9243C306.184 20.7211 305.757 20.5077 305.899 20.9914L306.582 22.4427C306.738 22.7272 307.151 22.9833 307.421 22.9833H308.658L308.629 22.8553C308.217 22.8553 307.776 22.6418 307.336 21.6032L306.625 19.9243ZM308.709 20.0666C308.539 21.9162 309.818 23.2536 311.923 23.211C313.828 23.1825 314.582 21.9162 314.752 21.4183H314.582C314.439 21.8451 313.814 22.7841 312.477 22.8126C310.913 22.841 309.818 21.7739 309.989 19.967C310.117 18.4873 310.956 17.1926 312.079 17.1926C313.757 17.1926 313.373 19.0564 313.899 19.0564L314.127 17.8186C314.027 17.6621 313.373 17.0076 312.122 17.0076C310.273 17.0076 308.852 18.402 308.709 20.0666ZM314.194 15.4141C314.607 15.4141 315.232 15.4995 315.232 16.6093V16.908H314.394V17.0503H315.232V20.7638C316.597 21.0199 314.308 23.2252 317.806 23.2252C318.275 23.2252 318.929 22.9975 319.271 22.7841L319.228 21.8024C318.801 21.8024 318.417 23.0829 317.962 23.0829C316.996 23.0829 316.384 22.4853 316.384 20.7638V17.0503H318.417V16.908H316.384V16.7231C316.384 15.7129 315.958 15.2719 315.645 15.2719H314.194V15.4141ZM320.018 22.8695C320.388 22.9549 321.099 23.1967 321.995 23.1967C323.715 23.1967 324.867 22.3004 324.867 21.2617C324.867 19.341 321.013 19.526 321.013 17.9324C321.013 17.2068 321.824 17.0788 322.179 17.0788C323.345 17.0788 323.516 18.3877 324.042 18.3877L324.085 17.1641C323.772 17.0788 322.748 16.9507 322.137 16.9507C321.07 16.9507 319.919 17.3349 319.919 18.4162C319.919 20.4081 323.786 20.3227 323.786 21.8878C323.786 22.528 323.118 22.9833 322.194 22.9833C320.601 22.9833 320.544 21.6459 320.061 21.6459L320.018 22.8695Z" fill="#303030" fill-opacity="0.8"/>
<path d="M347.666 18.6724C347.851 17.7333 348.363 17.3065 349.059 17.3065C349.472 17.3065 349.984 18.3167 350.467 18.2028L350.339 17.0077C349.998 16.9792 349.728 16.9508 349.358 16.9508C348.59 16.9508 347.965 17.3776 347.638 18.0606C347.538 17.3634 347.197 17.0504 346.941 17.0504H345.476V17.1784C345.903 17.1784 346.514 17.278 346.514 18.3593V21.6744C346.514 22.7557 345.903 22.8553 345.476 22.8553V22.9834H348.704V22.8553C348.277 22.8553 347.666 22.7557 347.666 21.6602V18.6724ZM358.381 22.8553C357.969 22.8553 357.343 22.8553 357.343 21.7313V17.0504H355.153V17.1784C355.58 17.1784 356.191 17.278 356.191 18.3451V21.2903C355.935 22.2008 355.096 22.6561 354.286 22.6561C353.205 22.6561 352.878 22.0728 352.878 20.8065V17.0504H350.689V17.1784C351.115 17.1784 351.727 17.278 351.727 18.3451V20.8065C351.727 22.2435 352.466 22.9834 354.03 22.9834C354.897 22.9834 355.793 22.5423 356.22 21.8025C356.305 22.6277 356.66 22.9834 356.931 22.9834H358.381V22.8553ZM357.55 13.5788L357.607 14.5605C358.019 14.5605 358.403 13.28 358.858 13.28C359.555 13.28 360.066 13.4081 360.066 14.4752V21.6602C360.066 22.7557 359.455 22.8553 359.028 22.8553V22.9834H360.493C360.692 22.9834 360.934 22.8126 361.076 22.4143C361.502 22.9691 362.142 23.2252 362.91 23.2252C364.432 23.2252 365.981 22.3289 365.981 20.0809C365.981 18.1602 364.844 16.9508 363.195 16.9508C362.427 16.9508 361.574 17.3492 361.218 18.1032V14.8166C361.218 13.4792 359.938 13.152 359.043 13.152C358.559 13.152 357.905 13.3654 357.55 13.5788ZM361.218 18.6724C361.431 17.7333 362.213 17.2211 362.91 17.2211C364.019 17.2211 364.716 18.2028 364.716 20.0809C364.716 22.1439 363.792 22.9549 362.626 22.9549C362.043 22.9549 361.517 22.6846 361.175 22.0586C361.204 21.9163 361.218 21.7313 361.218 21.5321V18.6724ZM365.354 13.5788L365.41 14.5605C365.823 14.5605 366.207 13.28 366.662 13.28C367.358 13.28 367.87 13.4081 367.87 14.4752V21.6602C367.87 22.7557 367.259 22.8553 366.832 22.8553V22.9834H368.297C368.496 22.9834 368.738 22.8126 368.88 22.4143C369.306 22.9691 369.946 23.2252 370.714 23.2252C372.235 23.2252 373.785 22.3289 373.785 20.0809C373.785 18.1602 372.648 16.9508 370.998 16.9508C370.231 16.9508 369.377 17.3492 369.022 18.1032V14.8166C369.022 13.4792 367.742 13.152 366.847 13.152C366.363 13.152 365.709 13.3654 365.354 13.5788ZM369.022 18.6724C369.235 17.7333 370.017 17.2211 370.714 17.2211C371.823 17.2211 372.52 18.2028 372.52 20.0809C372.52 22.1439 371.596 22.9549 370.43 22.9549C369.847 22.9549 369.321 22.6846 368.979 22.0586C369.008 21.9163 369.022 21.7313 369.022 21.5321V18.6724ZM375.091 15.3146C375.531 15.528 375.716 15.713 375.958 16.1683C376.214 15.7557 376.399 15.5707 376.811 15.3004C376.37 15.0585 376.186 14.8593 375.958 14.4325C375.759 14.8735 375.631 15.1012 375.091 15.3146ZM374.565 22.9834H377.792V22.8553C377.366 22.8553 376.754 22.7557 376.754 21.646V18.5016C376.754 17.4914 376.328 17.0504 376.015 17.0504H374.565V17.1784C374.977 17.1784 375.603 17.278 375.603 18.3878V21.646C375.603 22.7557 374.991 22.8553 374.565 22.8553V22.9834ZM378.552 22.8695C378.922 22.9549 379.633 23.1968 380.529 23.1968C382.249 23.1968 383.401 22.3004 383.401 21.2618C383.401 19.3411 379.548 19.526 379.548 17.9325C379.548 17.2069 380.358 17.0788 380.714 17.0788C381.88 17.0788 382.05 18.3878 382.576 18.3878L382.619 17.1642C382.306 17.0788 381.282 16.9508 380.671 16.9508C379.605 16.9508 378.453 17.3349 378.453 18.4163C378.453 20.4081 382.32 20.3228 382.32 21.8878C382.32 22.5281 381.652 22.9834 380.728 22.9834C379.135 22.9834 379.079 21.646 378.595 21.646L378.552 22.8695ZM390.788 21.6602V19.1703C390.788 17.7049 390.049 16.9508 388.499 16.9508C387.632 16.9508 386.736 17.3492 386.309 18.1032V14.8166C386.309 13.4792 385.03 13.152 384.134 13.152C383.65 13.152 382.996 13.3654 382.641 13.5788L382.698 14.5605C383.11 14.5605 383.494 13.28 383.949 13.28C384.646 13.28 385.158 13.4081 385.158 14.4752V21.646C385.158 22.7557 384.546 22.8553 384.12 22.8553V22.9834H387.347V22.8553C386.921 22.8553 386.309 22.7557 386.309 21.6602V18.6724C386.565 17.7333 387.418 17.278 388.215 17.278C389.295 17.278 389.636 17.8756 389.636 19.1703V21.6602C389.636 22.7557 389.011 22.8553 388.598 22.8553V22.9834H391.812V22.8553C391.4 22.8553 390.788 22.7557 390.788 21.6602ZM398.098 18.6724C398.283 17.7333 398.795 17.3065 399.492 17.3065C399.904 17.3065 400.416 18.3167 400.899 18.2028L400.771 17.0077C400.43 16.9792 400.16 16.9508 399.79 16.9508C399.022 16.9508 398.397 17.3776 398.07 18.0606C397.97 17.3634 397.629 17.0504 397.373 17.0504H395.909V17.1784C396.335 17.1784 396.947 17.278 396.947 18.3593V21.6744C396.947 22.7557 396.335 22.8553 395.909 22.8553V22.9834H399.136V22.8553C398.71 22.8553 398.098 22.7557 398.098 21.6602V18.6724ZM404.718 22.9407C403.083 22.9407 402.443 21.6744 402.614 20.1094C402.628 19.9529 402.656 19.7963 402.685 19.6541L406.481 19.5829C406.695 19.5829 406.908 19.4691 406.979 19.2272C407.206 18.274 406.751 16.9792 404.96 17.0077C403.239 17.0362 401.633 18.1602 401.419 20.152C401.235 21.8025 402.088 23.2964 404.348 23.2964C405.145 23.2964 406.979 23.1114 408.145 21.0057H407.988C407.15 22.6561 405.486 22.9407 404.718 22.9407ZM402.742 19.4264C403.083 18.1317 403.95 17.2211 404.917 17.2069C405.884 17.1927 406.083 18.3309 406.112 18.8289C406.14 19.1419 406.012 19.3837 405.571 19.398L402.742 19.4264ZM407.723 17.1927C408.136 17.1927 408.761 17.278 408.761 18.3878V21.6602C408.761 22.7557 408.15 22.8553 407.723 22.8553V22.9834H410.951V22.8553C410.524 22.8553 409.913 22.7557 409.913 21.6602V18.6724C410.14 17.7333 410.866 17.278 411.577 17.278C412.515 17.278 412.799 17.8756 412.799 19.1703V21.6602C412.799 22.7557 412.188 22.8553 411.776 22.8553V22.9834H414.989V22.8553C414.577 22.8553 413.951 22.7557 413.951 21.6602V19.1703C413.951 18.9854 413.951 18.8004 413.923 18.6439C414.221 17.9183 414.776 17.278 415.529 17.278C416.439 17.278 416.852 17.8756 416.852 19.1703V21.6602C416.852 22.7557 416.24 22.8553 415.814 22.8553V22.9834H419.041V22.8553C418.615 22.8553 418.003 22.7557 418.003 21.6602V19.1703C418.003 17.7049 417.207 16.9508 415.842 16.9508C414.961 16.9508 414.264 17.5199 413.852 18.2597C413.596 17.3919 412.956 16.9508 411.875 16.9508C411.079 16.9508 410.268 17.3919 409.884 18.1317C409.799 17.3776 409.444 17.0504 409.174 17.0504H407.723V17.1927ZM419.689 20.0809C419.433 21.7882 420.329 23.211 422.334 23.211C424.353 23.211 425.647 21.7882 425.902 20.0809C426.158 18.3736 425.263 16.9508 423.244 16.9508C421.239 16.9508 419.945 18.3736 419.689 20.0809ZM422.703 17.2638C424.011 17.2638 424.566 18.1317 424.623 20.0809C424.68 22.0586 424.168 22.9122 422.86 22.9122C421.566 22.9122 420.997 22.0586 420.94 20.0809C420.883 18.1317 421.409 17.2638 422.703 17.2638ZM425.291 17.1927C425.689 17.1927 426.087 17.2638 426.656 18.1602L429.486 23.0687H429.713L431.988 18.1459C432.486 17.2638 433.097 17.1784 433.481 17.1784V17.0504H431.021V17.1784C431.405 17.1784 431.931 17.2638 431.59 18.1602L430.012 21.4752L428.334 18.5016C427.765 17.4914 427.083 17.0504 426.77 17.0504H425.291V17.1927ZM435.581 23.211C437.102 23.211 437.6 21.7313 437.799 21.1053L437.671 20.9203C437.657 20.9488 437.33 22.9834 435.595 22.9834C434.856 22.9834 434.259 22.1582 434.344 21.2049C434.458 20.0667 435.482 19.5829 436.32 19.4264C437.515 19.213 438.61 18.8431 438.667 17.9183C438.78 16.2109 436.363 16.7516 435.297 17.0504C434.842 17.1784 434.259 17.5484 434.06 17.6337L433.989 18.8573C434.316 18.8573 434.984 17.5484 435.268 17.3776C436.505 16.6662 437.799 16.6947 437.714 18.0463C437.671 18.715 437.287 19.1561 436.278 19.2272C435.155 19.3126 433.306 19.8106 433.221 21.2903C433.164 22.4 434.159 23.211 435.581 23.211ZM438.155 19.9244C437.714 20.7212 437.287 20.5077 437.429 20.9915L438.112 22.4427C438.268 22.7273 438.681 22.9834 438.951 22.9834H440.188L440.159 22.8553C439.747 22.8553 439.306 22.6419 438.866 21.6033L438.155 19.9244ZM442.071 14.8166C442.071 13.4792 440.791 13.152 439.895 13.152C439.412 13.152 438.758 13.3654 438.402 13.5788L438.459 14.5605C438.872 14.5605 439.256 13.28 439.711 13.28C440.407 13.28 440.919 13.4081 440.919 14.4752V21.646C440.919 22.7557 440.308 22.8553 439.881 22.8553V22.9834H443.109V22.8553C442.682 22.8553 442.071 22.7557 442.071 21.6602V14.8166Z" fill="#303030" fill-opacity="0.8"/>
<path d="M462.877 20.0809C462.621 21.7882 463.517 23.211 465.522 23.211C467.541 23.211 468.835 21.7882 469.091 20.0809C469.347 18.3735 468.451 16.9508 466.432 16.9508C464.427 16.9508 463.133 18.3735 462.877 20.0809ZM465.892 17.2638C467.2 17.2638 467.754 18.1317 467.811 20.0809C467.868 22.0585 467.356 22.9122 466.048 22.9122C464.754 22.9122 464.185 22.0585 464.128 20.0809C464.072 18.1317 464.598 17.2638 465.892 17.2638ZM476.953 22.8553C476.541 22.8553 475.915 22.8553 475.915 21.7313V17.0503H473.726V17.1784C474.152 17.1784 474.764 17.278 474.764 18.3451V21.2902C474.508 22.2008 473.669 22.6561 472.858 22.6561C471.778 22.6561 471.451 22.0728 471.451 20.8065V17.0503H469.261V17.1784C469.687 17.1784 470.299 17.278 470.299 18.3451V20.8065C470.299 22.2435 471.038 22.9833 472.602 22.9833C473.47 22.9833 474.365 22.5423 474.792 21.8024C474.877 22.6276 475.233 22.9833 475.503 22.9833H476.953V22.8553ZM479.791 18.6723C479.976 17.7333 480.488 17.3064 481.184 17.3064C481.597 17.3064 482.109 18.3166 482.592 18.2028L482.464 17.0077C482.123 16.9792 481.853 16.9508 481.483 16.9508C480.715 16.9508 480.09 17.3776 479.763 18.0605C479.663 17.3634 479.322 17.0503 479.066 17.0503H477.601V17.1784C478.028 17.1784 478.639 17.278 478.639 18.3593V21.6744C478.639 22.7557 478.028 22.8553 477.601 22.8553V22.9833H480.829V22.8553C480.402 22.8553 479.791 22.7557 479.791 21.6601V18.6723ZM486.124 17.0503V17.1926C486.551 17.1926 487.162 17.278 487.162 18.3878V25.5586C487.162 26.6683 486.551 26.7537 486.124 26.7537V26.896H489.352V26.7537C488.925 26.7537 488.314 26.6683 488.314 25.5728V22.5707C488.726 23.0118 489.309 23.2252 490.006 23.2252C491.527 23.2252 493.063 22.3289 493.063 20.0809C493.063 18.1601 491.94 16.9508 490.29 16.9508C489.508 16.9508 488.655 17.3491 488.314 18.1032V17.0503H486.124ZM488.314 22.1439V18.6723C488.513 17.7333 489.295 17.2211 490.006 17.2211C491.115 17.2211 491.812 18.2028 491.812 20.0809C491.812 22.1439 490.888 22.9549 489.722 22.9549C489.153 22.9549 488.655 22.713 488.314 22.1439ZM494.161 20.0809C493.905 21.7882 494.801 23.211 496.806 23.211C498.825 23.211 500.119 21.7882 500.375 20.0809C500.631 18.3735 499.735 16.9508 497.716 16.9508C495.711 16.9508 494.417 18.3735 494.161 20.0809ZM497.176 17.2638C498.484 17.2638 499.038 18.1317 499.095 20.0809C499.152 22.0585 498.64 22.9122 497.332 22.9122C496.038 22.9122 495.469 22.0585 495.412 20.0809C495.356 18.1317 495.882 17.2638 497.176 17.2638ZM501.37 15.3146C501.81 15.528 501.995 15.7129 502.237 16.1682C502.493 15.7556 502.678 15.5707 503.09 15.3003C502.649 15.0585 502.464 14.8593 502.237 14.4324C502.038 14.8735 501.91 15.1011 501.37 15.3146ZM500.843 22.9833H504.071V22.8553C503.645 22.8553 503.033 22.7557 503.033 21.6459V18.5016C503.033 17.4914 502.607 17.0503 502.294 17.0503H500.843V17.1784C501.256 17.1784 501.881 17.278 501.881 18.3878V21.6459C501.881 22.7557 501.27 22.8553 500.843 22.8553V22.9833ZM504.732 17.1926C505.144 17.1926 505.77 17.278 505.77 18.3878V21.6601C505.77 22.7557 505.158 22.8553 504.732 22.8553V22.9833H507.959V22.8553C507.533 22.8553 506.921 22.7557 506.921 21.6601V18.6723C507.177 17.7475 507.76 17.278 508.571 17.278C509.651 17.278 509.808 17.8898 509.978 19.1703L510.305 21.6601C510.448 22.7415 509.694 22.8553 509.268 22.8553V22.9833H512.495V22.8553C512.069 22.8553 511.599 22.7557 511.457 21.6601L511.13 19.1703C510.945 17.7191 510.391 16.9508 508.827 16.9508C507.959 16.9508 507.32 17.3918 506.893 18.1317C506.808 17.3776 506.452 17.0503 506.182 17.0503H504.732V17.1926ZM512.268 15.4142C512.681 15.4142 513.306 15.4995 513.306 16.6093V16.9081H512.467V17.0503H513.306V20.7638C514.671 21.0199 512.382 23.2252 515.88 23.2252C516.349 23.2252 517.003 22.9976 517.344 22.7841L517.302 21.8024C516.875 21.8024 516.491 23.0829 516.036 23.0829C515.069 23.0829 514.458 22.4854 514.458 20.7638V17.0503H516.491V16.9081H514.458V16.7231C514.458 15.7129 514.031 15.2719 513.719 15.2719H512.268V15.4142ZM518.092 22.8695C518.462 22.9549 519.173 23.1967 520.068 23.1967C521.789 23.1967 522.94 22.3004 522.94 21.2618C522.94 19.341 519.087 19.526 519.087 17.9325C519.087 17.2069 519.898 17.0788 520.253 17.0788C521.419 17.0788 521.59 18.3878 522.116 18.3878L522.158 17.1642C521.846 17.0788 520.822 16.9508 520.21 16.9508C519.144 16.9508 517.992 17.3349 517.992 18.4162C517.992 20.4081 521.86 20.3227 521.86 21.8878C521.86 22.528 521.192 22.9833 520.267 22.9833C518.675 22.9833 518.618 21.6459 518.135 21.6459L518.092 22.8695Z" fill="#303030" fill-opacity="0.8"/>
<path d="M542.671 19.5194C542.5 21.369 543.78 22.7064 545.884 22.6637C547.788 22.6353 548.543 21.369 548.713 20.871H548.543C548.401 21.2979 547.777 22.2369 546.439 22.2654C544.875 22.2938 543.78 21.2267 543.95 19.4198C544.078 17.9401 544.917 16.6454 546.041 16.6454C547.717 16.6454 547.334 18.5092 547.859 18.5092L548.089 17.2714C547.991 17.1149 547.334 16.4604 546.083 16.4604C544.235 16.4604 542.813 17.8547 542.671 19.5194ZM549.32 19.5336C549.068 21.241 549.959 22.6637 551.966 22.6637C553.984 22.6637 555.281 21.241 555.538 19.5336C555.789 17.8263 554.898 16.4035 552.874 16.4035C550.873 16.4035 549.577 17.8263 549.32 19.5336ZM552.338 16.7165C553.645 16.7165 554.198 17.5844 554.258 19.5336C554.313 21.5113 553.799 22.3649 552.491 22.3649C551.201 22.3649 550.632 21.5113 550.572 19.5336C550.517 17.5844 551.042 16.7165 552.338 16.7165ZM556.002 16.6454C556.418 16.6454 557.041 16.7307 557.041 17.8405V21.1129C557.041 22.2084 556.429 22.308 556.002 22.308V22.4361H559.234V22.308C558.808 22.308 558.195 22.2084 558.195 21.1129V18.1251C558.452 17.2003 559.032 16.7307 559.841 16.7307C560.924 16.7307 561.083 17.3425 561.252 18.623L561.581 21.1129C561.723 22.1942 560.968 22.308 560.541 22.308V22.4361H563.768V22.308C563.341 22.308 562.871 22.2084 562.729 21.1129L562.401 18.623C562.22 17.1718 561.663 16.4035 560.099 16.4035C559.234 16.4035 558.595 16.8446 558.168 17.5844C558.081 16.8303 557.725 16.5031 557.457 16.5031H556.002V16.6454ZM564.364 22.3223C564.736 22.4076 565.447 22.6495 566.344 22.6495C568.061 22.6495 569.215 21.7532 569.215 20.7145C569.215 18.7938 565.359 18.9787 565.359 17.3852C565.359 16.6596 566.174 16.5316 566.53 16.5316C567.695 16.5316 567.864 17.8405 568.389 17.8405L568.433 16.6169C568.121 16.5316 567.099 16.4035 566.486 16.4035C565.42 16.4035 564.266 16.7877 564.266 17.869C564.266 19.8609 568.132 19.7755 568.132 21.3405C568.132 21.9808 567.465 22.4361 566.541 22.4361C564.949 22.4361 564.895 21.0987 564.408 21.0987L564.364 22.3223ZM569.773 19.5194C569.603 21.369 570.883 22.7064 572.988 22.6637C574.891 22.6353 575.646 21.369 575.816 20.871H575.646C575.504 21.2979 574.881 22.2369 573.541 22.2654C571.977 22.2938 570.883 21.2267 571.052 19.4198C571.184 17.9401 572.02 16.6454 573.147 16.6454C574.82 16.6454 574.438 18.5092 574.963 18.5092L575.192 17.2714C575.094 17.1149 574.438 16.4604 573.185 16.4604C571.337 16.4604 569.915 17.8547 569.773 19.5194ZM576.51 14.7673C576.953 14.9807 577.139 15.1657 577.38 15.621C577.637 15.2084 577.817 15.0234 578.233 14.7531C577.79 14.5112 577.604 14.312 577.38 13.8852C577.177 14.3263 577.052 14.5539 576.51 14.7673ZM575.985 22.4361H579.212V22.308C578.785 22.308 578.173 22.2084 578.173 21.0987V17.9543C578.173 16.9442 577.746 16.5031 577.434 16.5031H575.985V16.6312C576.395 16.6312 577.024 16.7307 577.024 17.8405V21.0987C577.024 22.2084 576.412 22.308 575.985 22.308V22.4361ZM580.076 19.5336C579.824 21.241 580.716 22.6637 582.723 22.6637C584.741 22.6637 586.037 21.241 586.294 19.5336C586.545 17.8263 585.654 16.4035 583.631 16.4035C581.629 16.4035 580.333 17.8263 580.076 19.5336ZM583.095 16.7165C584.402 16.7165 584.954 17.5844 585.014 19.5336C585.069 21.5113 584.555 22.3649 583.248 22.3649C581.957 22.3649 581.388 21.5113 581.328 19.5336C581.274 17.5844 581.798 16.7165 583.095 16.7165ZM594.152 22.308C593.742 22.308 593.119 22.308 593.119 21.184V16.5031H590.926V16.6312C591.352 16.6312 591.965 16.7307 591.965 17.7978V20.743C591.708 21.6536 590.871 22.1088 590.062 22.1088C588.979 22.1088 588.651 21.5255 588.651 20.2592V16.5031H586.463V16.6312C586.89 16.6312 587.502 16.7307 587.502 17.7978V20.2592C587.502 21.6962 588.241 22.4361 589.805 22.4361C590.669 22.4361 591.566 21.995 591.992 21.2552C592.08 22.0804 592.435 22.4361 592.703 22.4361H594.152V22.308ZM594.831 22.3223C595.202 22.4076 595.913 22.6495 596.805 22.6495C598.527 22.6495 599.681 21.7532 599.681 20.7145C599.681 18.7938 595.826 18.9787 595.826 17.3852C595.826 16.6596 596.635 16.5316 596.991 16.5316C598.156 16.5316 598.331 17.8405 598.856 17.8405L598.899 16.6169C598.582 16.5316 597.559 16.4035 596.947 16.4035C595.881 16.4035 594.732 16.7877 594.732 17.869C594.732 19.8609 598.598 19.7755 598.598 21.3405C598.598 21.9808 597.931 22.4361 597.007 22.4361C595.416 22.4361 595.356 21.0987 594.874 21.0987L594.831 22.3223ZM603.81 19.5194C603.635 21.369 604.915 22.7064 607.02 22.6637C608.929 22.6353 609.678 21.369 609.853 20.871H609.678C609.536 21.2979 608.913 22.2369 607.578 22.2654C606.014 22.2938 604.915 21.2267 605.09 19.4198C605.216 17.9401 606.052 16.6454 607.179 16.6454C608.858 16.6454 608.47 18.5092 609 18.5092L609.224 17.2714C609.126 17.1149 608.47 16.4604 607.223 16.4604C605.374 16.4604 603.952 17.8547 603.81 19.5194ZM610.46 19.5336C610.203 21.241 611.1 22.6637 613.107 22.6637C615.125 22.6637 616.416 21.241 616.673 19.5336C616.93 17.8263 616.033 16.4035 614.015 16.4035C612.008 16.4035 610.717 17.8263 610.46 19.5336ZM613.474 16.7165C614.781 16.7165 615.338 17.5844 615.393 19.5336C615.453 21.5113 614.939 22.3649 613.632 22.3649C612.336 22.3649 611.767 21.5113 611.713 19.5336C611.652 17.5844 612.183 16.7165 613.474 16.7165ZM617.143 16.6454C617.553 16.6454 618.182 16.7307 618.182 17.8405V21.1129C618.182 22.2084 617.57 22.308 617.143 22.308V22.4361H620.37V22.308C619.943 22.308 619.331 22.2084 619.331 21.1129V18.1251C619.588 17.2003 620.173 16.7307 620.982 16.7307C622.059 16.7307 622.218 17.3425 622.388 18.623L622.716 21.1129C622.858 22.1942 622.103 22.308 621.677 22.308V22.4361H624.903V22.308C624.477 22.308 624.012 22.2084 623.87 21.1129L623.541 18.623C623.356 17.1718 622.803 16.4035 621.239 16.4035C620.37 16.4035 619.73 16.8446 619.303 17.5844C619.216 16.8303 618.86 16.5031 618.592 16.5031H617.143V16.6454ZM625.505 22.3223C625.871 22.4076 626.582 22.6495 627.479 22.6495C629.202 22.6495 630.35 21.7532 630.35 20.7145C630.35 18.7938 626.5 18.9787 626.5 17.3852C626.5 16.6596 627.309 16.5316 627.665 16.5316C628.83 16.5316 628.999 17.8405 629.53 17.8405L629.568 16.6169C629.256 16.5316 628.234 16.4035 627.621 16.4035C626.555 16.4035 625.406 16.7877 625.406 17.869C625.406 19.8609 629.273 19.7755 629.273 21.3405C629.273 21.9808 628.606 22.4361 627.681 22.4361C626.084 22.4361 626.03 21.0987 625.549 21.0987L625.505 22.3223ZM638.395 22.308C637.979 22.308 637.356 22.308 637.356 21.184V16.5031H635.168V16.6312C635.595 16.6312 636.202 16.7307 636.202 17.7978V20.743C635.95 21.6536 635.108 22.1088 634.299 22.1088C633.216 22.1088 632.893 21.5255 632.893 20.2592V16.5031H630.7V16.6312C631.127 16.6312 631.739 16.7307 631.739 17.7978V20.2592C631.739 21.6962 632.477 22.4361 634.041 22.4361C634.911 22.4361 635.808 21.995 636.234 21.2552C636.316 22.0804 636.672 22.4361 636.945 22.4361H638.395V22.308ZM638.969 16.6454C639.384 16.6454 640.008 16.7307 640.008 17.8405V21.1129C640.008 22.2084 639.395 22.308 638.969 22.308V22.4361H642.195V22.308C641.769 22.308 641.162 22.2084 641.162 21.1129V18.1251C641.386 17.186 642.113 16.7307 642.824 16.7307C643.759 16.7307 644.044 17.3283 644.044 18.623V21.1129C644.044 22.2084 643.437 22.308 643.021 22.308V22.4361H646.237V22.308C645.821 22.308 645.198 22.2084 645.198 21.1129V18.623C645.198 18.4381 645.198 18.2531 645.17 18.0966C645.466 17.371 646.024 16.7307 646.778 16.7307C647.686 16.7307 648.096 17.3283 648.096 18.623V21.1129C648.096 22.2084 647.489 22.308 647.063 22.308V22.4361H650.289V22.308C649.863 22.308 649.25 22.2084 649.25 21.1129V18.623C649.25 17.1576 648.452 16.4035 647.09 16.4035C646.209 16.4035 645.509 16.9726 645.099 17.7125C644.842 16.8446 644.202 16.4035 643.12 16.4035C642.327 16.4035 641.517 16.8446 641.129 17.5844C641.047 16.8303 640.692 16.5031 640.418 16.5031H638.969V16.6454ZM650.3 16.5031V16.6454C650.727 16.6454 651.339 16.7307 651.339 17.8405V25.0113C651.339 26.1211 650.727 26.2064 650.3 26.2064V26.3487H653.527V26.2064C653.1 26.2064 652.488 26.1211 652.488 25.0255V22.0235C652.903 22.4645 653.483 22.678 654.183 22.678C655.703 22.678 657.24 21.7816 657.24 19.5336C657.24 17.6129 656.113 16.4035 654.467 16.4035C653.685 16.4035 652.832 16.8019 652.488 17.556V16.5031H650.3ZM652.488 21.5966V18.1251C652.69 17.186 653.472 16.6738 654.183 16.6738C655.293 16.6738 655.988 17.6556 655.988 19.5336C655.988 21.5966 655.063 22.4076 653.898 22.4076C653.33 22.4076 652.832 22.1658 652.488 21.5966ZM657.169 14.8669C657.584 14.8669 658.208 14.9523 658.208 16.062V16.3608H657.371V16.5031H658.208V20.2166C659.575 20.4727 657.284 22.678 660.784 22.678C661.254 22.678 661.905 22.4503 662.249 22.2369L662.206 21.2552C661.779 21.2552 661.396 22.5357 660.937 22.5357C659.974 22.5357 659.362 21.9381 659.362 20.2166V16.5031H661.396V16.3608H659.362V16.1759C659.362 15.1657 658.935 14.7246 658.623 14.7246H657.169V14.8669ZM663.42 14.7673C663.863 14.9807 664.048 15.1657 664.289 15.621C664.546 15.2084 664.727 15.0234 665.142 14.7531C664.699 14.5112 664.513 14.312 664.289 13.8852C664.087 14.3263 663.961 14.5539 663.42 14.7673ZM662.895 22.4361H666.121V22.308C665.695 22.308 665.082 22.2084 665.082 21.0987V17.9543C665.082 16.9442 664.656 16.5031 664.344 16.5031H662.895V16.6312C663.305 16.6312 663.934 16.7307 663.934 17.8405V21.0987C663.934 22.2084 663.321 22.308 662.895 22.308V22.4361ZM666.985 19.5336C666.734 21.241 667.625 22.6637 669.632 22.6637C671.65 22.6637 672.946 21.241 673.203 19.5336C673.455 17.8263 672.563 16.4035 670.54 16.4035C668.538 16.4035 667.242 17.8263 666.985 19.5336ZM670.004 16.7165C671.311 16.7165 671.863 17.5844 671.924 19.5336C671.978 21.5113 671.464 22.3649 670.157 22.3649C668.867 22.3649 668.298 21.5113 668.238 19.5336C668.183 17.5844 668.708 16.7165 670.004 16.7165ZM673.668 16.6454C674.084 16.6454 674.707 16.7307 674.707 17.8405V21.1129C674.707 22.2084 674.095 22.308 673.668 22.308V22.4361H676.9V22.308C676.474 22.308 675.861 22.2084 675.861 21.1129V18.1251C676.118 17.2003 676.698 16.7307 677.507 16.7307C678.59 16.7307 678.748 17.3425 678.918 18.623L679.246 21.1129C679.388 22.1942 678.634 22.308 678.207 22.308V22.4361H681.434V22.308C681.007 22.308 680.537 22.2084 680.395 21.1129L680.067 18.623C679.886 17.1718 679.328 16.4035 677.764 16.4035C676.9 16.4035 676.26 16.8446 675.834 17.5844C675.746 16.8303 675.391 16.5031 675.123 16.5031H673.668V16.6454Z" fill="#303030" fill-opacity="0.8"/>
</g>
</g>
<defs>
<filter id="filter0_f_14_44" x="-331.328" y="31.3334" width="813.594" height="701.256" filterUnits="userSpaceOnUse" color-interpolation-filters="sRGB">
<feFlood flood-opacity="0" result="BackgroundImageFix"/>
<feBlend mode="normal" in="SourceGraphic" in2="BackgroundImageFix" result="shape"/>
<feGaussianBlur stdDeviation="50" result="effect1_foregroundBlur_14_44"/>
</filter>
<filter id="filter1_f_14_44" x="206.797" y="-270.733" width="803.203" height="698.519" filterUnits="userSpaceOnUse" color-interpolation-filters="sRGB">
<feFlood flood-opacity="0" result="BackgroundImageFix"/>
<feBlend mode="normal" in="SourceGraphic" in2="BackgroundImageFix" result="shape"/>
<feGaussianBlur stdDeviation="50" result="effect1_foregroundBlur_14_44"/>
</filter>
<radialGradient id="paint0_radial_14_44" cx="0" cy="0" r="1" gradientUnits="userSpaceOnUse" gradientTransform="translate(22.728 410.373) rotate(-41.7277) scale(399.016 451.686)">
<stop stop-color="#C1C1C1" stop-opacity="0.77"/>
<stop offset="1" stop-color="#C1C1C1" stop-opacity="0"/>
</radialGradient>
<radialGradient id="paint1_radial_14_44" cx="0" cy="0" r="1" gradientUnits="userSpaceOnUse" gradientTransform="translate(608.776 119.393) rotate(-90) scale(321.011 388.421)">
<stop stop-color="#A0FF01" stop-opacity="0.84"/>
<stop offset="1" stop-color="#A0FF01" stop-opacity="0"/>
</radialGradient>
<clipPath id="clip0_14_44">
<rect width="700" height="394" fill="white"/>
</clipPath>
</defs>
</svg>
